<?xml version="1.0" encoding="UTF-8"?>
<svg width="14px" height="20px" viewBox="0 0 14 20" version="1.1" xmlns="http://www.w3.org/2000/svg" xmlns:xlink="http://www.w3.org/1999/xlink">
    <!-- Generator: sketchtool 54.1 (76490) - https://sketchapp.com -->
    <title>D6A453DF-46BC-4E03-B98A-B7492F21E24D</title>
    <desc>Created with sketchtool.</desc>
    <defs>
        <path d="M11.999,1.0002 C11.194,1.0002 10.451,1.4872 10.143,2.2572 L6.143,12.2572 C5.896,12.8742 5.972,13.5722 6.344,14.1212 C6.716,14.6712 7.336,15.0002 8,15.0002 L10,15.0002 L10,21.0002 C10,21.9592 10.681,22.7832 11.622,22.9642 C11.749,22.9882 11.876,23.0002 12.001,23.0002 C12.806,23.0002 13.549,22.5132 13.857,21.7432 L17.857,11.7432 C18.103,11.1262 18.028,10.4282 17.656,9.8792 C17.284,9.3292 16.664,9.0002 16,9.0002 L14,9.0002 L14,3.0002 C14,2.0412 13.319,1.2172 12.378,1.0362 C12.251,1.0122 12.124,1.0002 11.999,1.0002 M12,3.0002 L12,11.0002 L16,11.0002 L12,21.0002 L12,13.0002 L8,13.0002 L12,3.0002" id="path-3"></path>
    </defs>
    <g id="Desktop" stroke="none" stroke-width="1" fill="none" fill-rule="evenodd">
        <g id="3.1.-Verify-Profile" transform="translate(-732.000000, -38.000000)">
            <g id="Group-3" transform="translate(633.000000, 36.000000)">
                <g id="Activity" transform="translate(94.000000, 0.000000)">
                    <g id="UI/Icons/24-search">
                        <mask id="mask-4" fill="white">
                            <use xlink:href="#path-3"></use>
                        </mask>
                        <use id="Mask" fill="#000000" transform="translate(11.999782, 12.000200) rotate(-330.000000) translate(-11.999782, -12.000200) " xlink:href="#path-3"></use>
                    </g>
                </g>
            </g>
        </g>
    </g>
</svg>