<?xml version="1.0" encoding="UTF-8"?>
<svg width="21px" height="20px" viewBox="0 0 21 20" version="1.1" xmlns="http://www.w3.org/2000/svg" xmlns:xlink="http://www.w3.org/1999/xlink">
    <!-- Generator: sketchtool 54.1 (76490) - https://sketchapp.com -->
    <title>AD852D33-5D1A-44CB-950A-C19D8E419E6B</title>
    <desc>Created with sketchtool.</desc>
    <defs>
        <path d="M11.6812,22 L5.0672,22 C3.3762,22 2.0002,20.631 2.0002,18.949 L2.0002,5.051 C2.0002,3.369 3.3762,2 5.0672,2 L11.6812,2 C13.3722,2 14.7482,3.369 14.7482,5.051 L14.7482,6.968 C14.7482,7.517 14.2892,7.962 13.7242,7.962 C13.1592,7.962 12.7002,7.517 12.7002,6.968 L12.7002,5.051 C12.7002,4.466 12.2432,3.99 11.6812,3.99 L5.0672,3.99 C4.5052,3.99 4.0482,4.466 4.0482,5.051 L4.0482,18.949 C4.0482,19.534 4.5052,20.01 5.0672,20.01 L11.6812,20.01 C12.2432,20.01 12.7002,19.534 12.7002,18.949 L12.7002,17.503 C12.7002,16.954 13.1592,16.508 13.7242,16.508 C14.2892,16.508 14.7482,16.954 14.7482,17.503 L14.7482,18.949 C14.7482,20.631 13.3722,22 11.6812,22 Z M16.7896,16.5684 C16.4916,16.5684 16.1966,16.4394 15.9946,16.1904 C15.8406,16.0004 15.7656,15.7724 15.7646,15.5464 C15.7646,15.2474 15.8936,14.9514 16.1436,14.7494 L18.2666,13.0244 L9.0246,13.0244 C8.4586,13.0244 7.9996,12.5654 7.9996,12.0004 C7.9996,11.4344 8.4586,10.9754 9.0246,10.9754 L18.2666,10.9754 L16.1436,9.2514 C15.7046,8.8944 15.6376,8.2494 15.9946,7.8104 C16.3516,7.3724 16.9966,7.3054 17.4356,7.6614 L21.7806,11.1924 C21.8216,11.2234 21.8606,11.2594 21.8966,11.2984 C21.9356,11.3394 21.9716,11.3834 22.0026,11.4304 C22.1116,11.5934 22.1676,11.7784 22.1746,11.9644 C22.1746,11.9764 22.1756,11.9874 22.1756,11.9994 L22.1756,12.0014 C22.1746,12.0704 22.1676,12.1404 22.1536,12.2104 C22.1086,12.4234 21.9966,12.6244 21.8186,12.7764 C21.8176,12.7774 21.8166,12.7774 21.8166,12.7774 C21.8096,12.7844 21.8026,12.7904 21.7956,12.7964 L17.4356,16.3394 C17.2456,16.4934 17.0166,16.5684 16.7896,16.5684 Z" id="path-1"></path>
    </defs>
    <g id="Main" stroke="none" stroke-width="1" fill="none" fill-rule="evenodd">
        <g id="1.-Dashboard" transform="translate(-1282.000000, -38.000000)">
            <g id="Nav-Bar">
                <g id="Menu" transform="translate(544.000000, 28.000000)">
                    <g id="Log-Out" transform="translate(727.000000, 4.000000)">
                        <g id="UI/Icons/24-exit" transform="translate(9.000000, 4.000000)">
                            <mask id="mask-2" fill="white">
                                <use xlink:href="#path-1"></use>
                            </mask>
                            <use id="Combined-Shape" fill="#FFFFFF" xlink:href="#path-1"></use>
                            <rect id="Rectangle" fill="#1D2531" mask="url(#mask-2)" x="0" y="0" width="24" height="24"></rect>
                        </g>
                    </g>
                </g>
            </g>
        </g>
    </g>
</svg>