<?xml version="1.0" encoding="UTF-8"?>
<svg width="12px" height="12px" viewBox="0 0 12 12" version="1.1" xmlns="http://www.w3.org/2000/svg" xmlns:xlink="http://www.w3.org/1999/xlink">
    <!-- Generator: Sketch 55 (78076) - https://sketchapp.com -->
    <desc>Created with Sketch.</desc>
    <g id="Desktop" stroke="none" stroke-width="1" fill="none" fill-rule="evenodd" opacity="0.7">
        <g id="0.1.1.-Login-popup" transform="translate(-911.000000, -142.000000)" fill="#000000">
            <g id="popup-getBan" transform="translate(417.000000, 120.000000)">
                <path d="M501.427305,28 L505.709219,32.2752057 C506.102741,32.668111 506.103241,33.3056361 505.710335,33.6991579 C505.709963,33.6995303 505.709591,33.6999024 505.709219,33.7002742 C505.314899,34.0939766 504.676234,34.0939766 504.281914,33.7002742 L500,29.4250686 L495.718086,33.7002742 C495.323766,34.0939766 494.685101,34.0939766 494.290781,33.7002742 C493.897259,33.307369 493.896759,32.6698438 494.289665,32.276322 C494.290037,32.2759496 494.290409,32.2755775 494.290781,32.2752057 L498.572695,28 L494.290781,23.7247943 C493.897259,23.331889 493.896759,22.6943639 494.289665,22.3008421 C494.290037,22.3004697 494.290409,22.3000976 494.290781,22.2997258 C494.685101,21.9060234 495.323766,21.9060234 495.718086,22.2997258 L500,26.5749314 L504.281914,22.2997258 C504.676234,21.9060234 505.314899,21.9060234 505.709219,22.2997258 C506.102741,22.692631 506.103241,23.3301562 505.710335,23.723678 C505.709963,23.7240504 505.709591,23.7244225 505.709219,23.7247943 L501.427305,28 Z" id="Combined-Shape"></path>
            </g>
        </g>
    </g>
</svg>
