<?xml version="1.0" encoding="UTF-8"?>
<svg width="64px" height="44px" viewBox="0 0 64 44" version="1.1" xmlns="http://www.w3.org/2000/svg" xmlns:xlink="http://www.w3.org/1999/xlink">
    <!-- Generator: sketchtool 54.1 (76490) - https://sketchapp.com -->
    <title>CA5C81E8-E397-436E-9A2F-5E1166B3BFA3</title>
    <desc>Created with sketchtool.</desc>
    <g id="Main" stroke="none" stroke-width="1" fill="none" fill-rule="evenodd">
        <g id="1.-Dashboard" transform="translate(-48.000000, -26.000000)" fill="#FFFFFF">
            <g id="Nav-Bar">
                <g id="Logo">
                    <path d="M103.481039,50.1297001 C106.017816,50.1297001 108.100032,48.0427688 108.100032,45.5002468 C108.100032,42.9577248 106.017816,40.9088006 103.481039,40.9088006 C100.944755,40.9088006 98.8999681,42.9577248 98.8999681,45.5002468 C98.8999681,48.0427688 100.944755,50.1297001 103.481039,50.1297001 Z M103.481039,37 C108.176367,37 112,40.8327865 112,45.5002468 C112,50.2052205 108.176367,54 103.481039,54 C98.8241258,54 95,50.2052205 95,45.5002468 C95,40.8327865 98.8241258,37 103.481039,37 Z M85.4890448,38 C89.4947874,38 92.8461835,41.1550534 93,45.0614962 L93,45.3614656 L93,54 L89.0328368,54 L89.0328368,51.8967939 L89.0328368,45.3614656 C89.0328368,43.1458931 87.4530862,41.3802748 85.4890448,41.3802748 C83.5630817,41.3802748 81.9833311,43.1458931 81.9833311,45.3614656 L81.9833311,51.8967939 L81.9833311,54 L78.0161679,54 L78.0161679,51.8967939 L78.0161679,45.3614656 C78.0161679,43.1458931 76.4369183,41.3802748 74.4723759,41.3802748 C72.6235716,41.3802748 71.1214807,42.9954198 71.0057426,45.0614962 L71.0057426,51.8967939 L71.0057426,54 L67,54 L67,45.3614656 L67,45.0614962 C67.1538165,41.1550534 70.5052126,38 74.4723759,38 C76.6678936,38 78.632436,38.901374 80.0192897,40.4036641 C81.367564,38.901374 83.3321064,38 85.4890448,38 Z M56.5002479,50.0039304 C59.0922162,50.0039304 61.1883986,47.8272974 61.1883986,45.136487 C61.1883986,42.4461913 59.0922162,40.3097043 56.5002479,40.3097043 C53.9464551,40.3097043 51.8502727,42.4461913 51.8502727,45.136487 C51.8502727,47.8272974 53.9464551,50.0039304 56.5002479,50.0039304 Z M61.1502231,32 L65,32 L65,45.136487 C65,50.043047 61.0738721,54 56.5384234,54 C51.8502727,54 48,50.043047 48,45.136487 C48,40.2695583 51.8502727,36.2734887 56.5384234,36.2734887 C58.2533466,36.2734887 59.8160635,36.7876661 61.1502231,37.6976418 L61.1502231,32 Z M61,30 L61,26 L65,26 L65,30 L61,30 Z M102,56 C98.7340488,64.1600431 90.098909,70 79.9626428,70 C69.9015793,70 61.3040409,64.1987783 58,56.0769673 C62.8056557,61.646281 70.8396613,65.3200862 79.9626428,65.3200862 C89.1227373,65.3200862 97.2319457,61.6075458 102,56 Z" id="logo-dimo"></path>
                </g>
            </g>
        </g>
    </g>
</svg>