<?xml version="1.0" encoding="UTF-8"?>
<svg width="22px" height="22px" viewBox="0 0 22 22" version="1.1" xmlns="http://www.w3.org/2000/svg" xmlns:xlink="http://www.w3.org/1999/xlink">
    <!-- Generator: Sketch 55.2 (78181) - https://sketchapp.com -->
    <title>UI / Icons / 24_wallet</title>
    <desc>Created with Sketch.</desc>
    <defs>
        <path d="M21.0188694,11.0092048 L14.9894862,10.974452 L14.982296,17.0219605 L21.0125779,17.0134221 L21.0188694,11.0092048 Z M2.992904,21.0193078 L19.4049625,20.9930788 L19.3439375,19.0237109 L15.0260937,19.0218274 C13.6025643,19.0218274 12.9796451,18.4196313 12.9796451,17.0111657 L12.9972695,11.0139587 C12.9972695,9.60549308 13.5688627,9.03121355 14.9923921,9.03121355 L19.355844,9.01264738 L19.3564495,7.02061916 L3.02120595,7.01887263 L2.992904,21.0193078 Z M3,3 L3,5 L17,5 L17,3 L10,3 L8.6,3 L3,3 Z M21.7058824,7.63492063 L21.7058824,9.2610582 C22.4823529,9.70920635 23,10.5286772 23,11.4761905 L23,16.5978836 C23,17.5453968 22.4823529,18.3648677 21.7058824,18.8130159 L21.7058824,20.4391534 C21.7058824,21.847619 20.5411765,23 19.1176471,23 L3.58823529,23 C2.16470588,23 1,21.847619 1,20.4391534 L1,7.63492063 L1,3.56084656 C1,2.15238095 2.16470588,1 3.58823529,1 L8.76470588,1 L10.0588235,1 L16.5294118,1 C17.9529412,1 19.0314192,2.09137902 19.0314192,3.49984463 L19.0185507,5.0092308 C20.4420801,5.0092308 21.7058824,6.22645503 21.7058824,7.63492063 Z M20,14 C20,14.552 19.553,15 19,15 C18.447,15 18,14.552 18,14 C18,13.448 18.447,13 19,13 C19.553,13 20,13.448 20,14 Z" id="path-1"></path>
    </defs>
    <g id="Client" stroke="none" stroke-width="1" fill="none" fill-rule="evenodd">
        <g id="4.-Wallet" transform="translate(-406.000000, -37.000000)">
            <g id="Top-nav-bar">
                <g id="Group-7" transform="translate(393.000000, 28.000000)">
                    <g id="UI-/-Icons-/-24_wallet" transform="translate(12.000000, 8.000000)">
                        <mask id="mask-2" fill="white">
                            <use xlink:href="#path-1"></use>
                        </mask>
                        <use id="Combined-Shape" fill="#000000" fill-rule="evenodd" xlink:href="#path-1"></use>
                    </g>
                </g>
            </g>
        </g>
    </g>
</svg>