<?xml version="1.0" encoding="UTF-8"?>
<svg width="14px" height="14px" viewBox="0 0 14 14" version="1.1" xmlns="http://www.w3.org/2000/svg" xmlns:xlink="http://www.w3.org/1999/xlink">
    <defs>
        <path d="M9.06646663,13.3333999 L7.9291333,9.35139993 L10.4891333,5.51139993 L6.6491333,8.07073326 L2.66646663,6.93339993 L13.3331333,2.66673326 L9.06646663,13.3333999 Z M14.2758005,1.7240666 C14.0218005,1.46939993 13.6804672,1.33339993 13.3331338,1.33339993 C13.1664671,1.33339993 12.9984671,1.36473326 12.8378005,1.42873326 L2.17113333,5.69539993 C1.64179998,5.90739993 1.30579996,6.4320666 1.3351333,7.00139993 C1.36379997,7.57073326 1.75179998,8.05873326 2.30046667,8.21539993 L6.56580019,9.4340666 L7.78446691,13.6993999 C7.94180025,14.2480666 8.4291336,14.6360666 8.99846696,14.6653999 C9.0218003,14.6660666 9.04446696,14.6667333 9.06713363,14.6667333 C9.60913365,14.6667333 10.1018003,14.3367333 10.304467,13.8287333 L14.5718005,3.1620666 C14.7698005,2.66673326 14.6538005,2.10073326 14.2758005,1.7240666 L14.2758005,1.7240666 Z" id="path-200"></path>
    </defs>
    <g id="Client" stroke="none" stroke-width="1" fill="none" fill-rule="evenodd">
        <g id="5.-Chat" transform="translate(-1033.000000, -153.000000)">
            <g id="UI/Buttons/main-button-Copy-5" transform="translate(1016.000000, 144.000000)">
                <g id="UI-/-Icons-/-24_arrow-back-Copy" transform="translate(16.000000, 8.000000)">
                    <mask id="mask-200" fill="white">
                        <use xlink:href="#path-200"></use>
                    </mask>
                    <use id="Fill-1" fill="#000000" xlink:href="#path-200"></use>
                    <rect id="Rectangle" fill="#FFFFFF" mask="url(#mask-200)" x="0" y="0" width="16" height="16"></rect>
                </g>
            </g>
        </g>
    </g>
</svg>