<?xml version="1.0" encoding="UTF-8"?>
<svg width="34px" height="20px" viewBox="0 0 34 20" version="1.1" xmlns="http://www.w3.org/2000/svg" xmlns:xlink="http://www.w3.org/1999/xlink">
    <g id="Client" stroke="none" stroke-width="1" fill="none" fill-rule="evenodd">
        <g id="5Chat" transform="translate(-971.000000, -810.000000)" fill="#90A5C2" fill-rule="nonzero">
            <g id="UI-/-Inputs-/-Form-/-Inactive-Copy" transform="translate(640.000000, 808.000000)">
                <g id="file-gif-2" transform="translate(331.000000, 2.000000)">
                    <path d="M4.44490624,0 L29.5550938,0 C32.025056,0 34,2.06554169 34,4.61351631 L34,15.3864837 C34,17.934978 32.0099476,20 29.5550938,20 L4.44490624,20 C1.97494403,20 0,17.9344583 0,15.3864837 L0,4.61351631 C0,2.065022 1.9900523,0 4.44490624,0 Z M4.8493735,2 C3.27570797,2 2,3.3093472 2,4.89747927 L2,15.1025207 C2,16.7027543 3.2890625,18 4.8493735,18 L29.1506264,18 C30.724292,18 32,16.6906528 32,15.1025207 L32,4.89747927 C32,3.29724567 30.7109374,2 29.1506264,2 L4.8493735,2 Z M11.826087,10.7692308 L11.826087,13.8461538 L8.86928065,13.8461538 C8.04723323,13.8461538 7.39130435,13.1574937 7.39130435,12.3079885 L7.39130435,7.69201154 C7.39130435,6.83648708 8.05301693,6.15384615 8.86928065,6.15384615 L13.3043478,6.15384615 L13.3043478,4.61538462 L8.87678135,4.61538462 C7.23995412,4.61538462 5.91304348,5.97931508 5.91304348,7.701414 L5.91304348,12.298586 C5.91304348,14.0029529 7.23446057,15.3846154 8.87678135,15.3846154 L13.3043478,15.3846154 L13.3043478,14.2307692 L13.3043478,14.2307692 L13.3043478,10.7692308 L13.3043478,9.23076923 L8.86956522,9.23076923 L8.86956522,10.7692308 L11.826087,10.7692308 L11.826087,10.7692308 Z M16.2608696,6.15384615 L16.2608696,13.8461538 L14.7826087,13.8461538 L14.7826087,15.3846154 L19.2173913,15.3846154 L19.2173913,13.8461538 L17.7391304,13.8461538 L17.7391304,6.15384615 L19.2173913,6.15384615 L19.2173913,4.61538462 L14.7826087,4.61538462 L14.7826087,6.15384615 L16.2608696,6.15384615 L16.2608696,6.15384615 Z M22.173913,9.23076923 L22.173913,6.15384615 L28.0869565,6.15384615 L28.0869565,4.61538462 L20.6956522,4.61538462 L20.6956522,15.3846154 L22.173913,15.3846154 L22.173913,10.7692308 L26.6086957,10.7692308 L26.6086957,9.23076923 L22.173913,9.23076923 L22.173913,9.23076923 Z" id="file-gif"></path>
                </g>
            </g>
        </g>
    </g>
</svg>