<?xml version="1.0" encoding="UTF-8"?>
<svg width="20px" height="20px" viewBox="0 0 20 20" version="1.1" xmlns="http://www.w3.org/2000/svg" xmlns:xlink="http://www.w3.org/1999/xlink">
    <defs>
        <path d="M8.5,11 C7.67285714,11 7,10.3271429 7,9.5 C7,8.67285714 7.67285714,8 8.5,8 C9.32714286,8 10,8.67285714 10,9.5 C10,10.3271429 9.32714286,11 8.5,11 Z M15.5,11 C14.6728571,11 14,10.3271429 14,9.5 C14,8.67285714 14.6728571,8 15.5,8 C16.3271429,8 17,8.67285714 17,9.5 C17,10.3271429 16.3271429,11 15.5,11 Z M12,2 C17.514,2 22,6.486 22,12 C22,17.515 17.514,22 12,22 C6.486,22 2,17.515 2,12 C2,6.486 6.486,2 12,2 Z M12,20 C16.411,20 20,16.411 20,12 C20,7.589 16.411,4 12,4 C7.589,4 4,7.589 4,12 C4,16.411 7.589,20 12,20 Z M12,16 C13.27,16 14.437,15.417 15.2,14.399 C15.6709711,13.9496629 16.1436079,13.9058857 16.6179105,14.2676683 C17.0922131,14.6294509 17.1529096,15.0738948 16.8,15.601 C15.655,17.126 13.905,18 12,18 C10.098,18 8.35,17.128 7.203,15.605 C6.8984368,15.0959532 6.96689915,14.650176 7.40838702,14.2676683 C7.8498749,13.8851606 8.31407923,13.9299378 8.801,14.402 C9.566,15.418 10.732,16 12,16 Z" id="path-199"></path>
    </defs>
    <g id="Client" stroke="none" stroke-width="1" fill="none" fill-rule="evenodd">
        <g id="5.-Chat" transform="translate(-1023.000000, -810.000000)">
            <g id="UI-/-Inputs-/-Form-/-Inactive-Copy" transform="translate(640.000000, 808.000000)">
                <g id="UI-/-Icons-/-icn_24_smile" transform="translate(381.000000, 0.000000)">
                    <mask id="mask-199" fill="white">
                        <use xlink:href="#path-199"></use>
                    </mask>
                    <use id="Mask" fill="#757575" fill-rule="nonzero" xlink:href="#path-199"></use>
                    <rect id="Color" fill="#90A5C2" mask="url(#mask-199)" x="0" y="0" width="24" height="24"></rect>
                </g>
            </g>
        </g>
    </g>
</svg>