<?xml version="1.0" encoding="UTF-8"?>
<svg width="14px" height="14px" viewBox="0 0 14 14" version="1.1" xmlns="http://www.w3.org/2000/svg" xmlns:xlink="http://www.w3.org/1999/xlink">
    <!-- Generator: sketchtool 54.1 (76490) - https://sketchapp.com -->
    <title>78690233-7619-4D83-B93F-F764F23FA85B</title>
    <desc>Created with sketchtool.</desc>
    <g id="Desktop" stroke="none" stroke-width="1" fill="none" fill-rule="evenodd">
        <g id="2.-SIgn-up-01" transform="translate(-1081.000000, -585.000000)" fill="#0067C7">
            <g id="Facebook" transform="translate(1064.000000, 576.000000)">
                <path d="M29.1132667,9 L18.8862667,9 C17.8446667,9 17,9.84513333 17,10.8867333 L17,21.1137333 C17,22.1553333 17.8446667,23 18.8862667,23 L23.9304667,23 L23.9388667,17.9973333 L22.6392,17.9973333 C22.4702667,17.9973333 22.3330667,17.8606 22.3326,17.6916667 L22.3265333,16.0793333 C22.3256,15.9094667 22.4632667,15.7713333 22.6331333,15.7713333 L23.9304667,15.7713333 L23.9304667,14.2131333 C23.9304667,12.4048 25.0346,11.4206 26.6478667,11.4206 L27.9713333,11.4206 C28.1412,11.4206 28.2779333,11.5573333 28.2779333,11.7272 L28.2779333,13.0866 C28.2779333,13.256 28.1412,13.3932 27.9718,13.3932 L27.1593333,13.3936667 C26.282,13.3936667 26.1121333,13.8108667 26.1121333,14.4222 L26.1121333,15.7713333 L28.0399333,15.7713333 C28.2233333,15.7713333 28.3661333,15.9318667 28.3446667,16.1138667 L28.1533333,17.7266667 C28.1351333,17.8811333 28.0044667,17.9973333 27.8490667,17.9973333 L26.121,17.9973333 L26.1121333,23 L29.1132667,23 C30.1553333,23 31,22.1553333 31,21.1137333 L31,10.8867333 C31,9.84513333 30.1553333,9 29.1132667,9" id="Fill-1"></path>
            </g>
        </g>
    </g>
</svg>