<?xml version="1.0" encoding="UTF-8"?>
<svg width="14px" height="14px" viewBox="0 0 14 14" version="1.1" xmlns="http://www.w3.org/2000/svg" xmlns:xlink="http://www.w3.org/1999/xlink">
    <!-- Generator: sketchtool 54.1 (76490) - https://sketchapp.com -->
    <title>453986E1-6EC9-4ABC-8067-8614760AB4B0</title>
    <desc>Created with sketchtool.</desc>
    <g id="Desktop" stroke="none" stroke-width="1" fill="none" fill-rule="evenodd">
        <g id="2.-SIgn-up-01" transform="translate(-1017.000000, -585.000000)">
            <g id="Google" transform="translate(1000.000000, 576.000000)">
                <g id="UI/Icons/Social/Google" transform="translate(17.000000, 9.000000)">
                    <path d="M3.102785,8.460375 L2.615235,10.279675 L0.834435001,10.317475 C0.302085,9.32977498 3.49999991e-05,8.200325 3.49999991e-05,6.99982502 C3.49999991e-05,5.83922505 0.282135,4.74477507 0.782635001,3.78087509 L0.782985001,3.78087509 L2.368835,4.07137508 L3.063585,5.64777505 C2.917985,6.07162504 2.838885,6.52662503 2.838885,6.99982502 C2.838885,7.51397502 2.931985,8.00607501 3.102785,8.460375" id="Fill-1" fill="#FBBB00"></path>
                    <path d="M13.8777453,5.69215506 C13.9578953,6.11565507 13.9998953,6.55315507 13.9998953,6.99975508 C13.9998953,7.50130508 13.9473953,7.98990508 13.8469453,8.46135509 C13.5060453,10.0661051 12.6159953,11.4671551 11.3822453,12.4587051 L11.3818953,12.4583551 L9.38479534,12.3565051 L9.10199535,10.5918051 C9.92029534,10.1119551 10.5600953,9.3605051 10.8967953,8.46135509 L7.15389538,8.46135509 L7.15389538,5.69215506 L10.9517453,5.69215506 L13.8777453,5.69215506 Z" id="Fill-3" fill="#518EF8"></path>
                    <path d="M11.381965,12.4583547 L11.382315,12.4587047 C10.182865,13.4229547 8.65896502,13.9997547 6.99996501,13.9997547 C4.33436501,13.9997547 2.016665,12.5098047 0.834364995,10.3174046 L3.102715,8.46030462 C3.693865,10.0381046 5.21566501,11.1612546 6.99996501,11.1612546 C7.76681501,11.1612546 8.48536502,10.9537046 9.10206502,10.5918046 L11.381965,12.4583547 Z" id="Fill-5" fill="#28B446"></path>
                    <path d="M11.4680649,1.61143502 L9.20041493,3.46818503 C8.56236494,3.06918503 7.80811494,2.83888503 6.99996495,2.83888503 C5.17541497,2.83888503 3.62491498,4.01348504 3.06351499,5.64763505 L0.782915005,3.78073504 L0.782565005,3.78073504 C1.94771499,1.53443501 4.29446497,3.49999991e-05 6.99996495,3.49999991e-05 C8.69851494,3.49999991e-05 10.2556649,0.604835006 11.4680649,1.61143502" id="Fill-7" fill="#F14336"></path>
                </g>
            </g>
        </g>
    </g>
</svg>