<?xml version="1.0" encoding="UTF-8"?>
<svg width="24px" height="24px" viewBox="0 0 24 24" version="1.1" xmlns="http://www.w3.org/2000/svg" xmlns:xlink="http://www.w3.org/1999/xlink">
    <!-- Generator: sketchtool 54.1 (76490) - https://sketchapp.com -->
    <title>1C25D804-E43F-47AD-A2AB-B0154189BDA8</title>
    <desc>Created with sketchtool.</desc>
    <defs>
        <path d="M197.596836,42 L191.040336,42 C189.364037,42 188,40.631 188,38.949 L188,25.051 C188,23.369 189.364037,22 191.040336,22 L197.596836,22 C199.273135,22 200.637172,23.369 200.637172,25.051 L200.637172,26.968 C200.637172,27.517 200.182162,27.962 199.622074,27.962 C199.061986,27.962 198.606977,27.517 198.606977,26.968 L198.606977,25.051 C198.606977,24.466 198.15395,23.99 197.596836,23.99 L191.040336,23.99 C190.483222,23.99 190.030195,24.466 190.030195,25.051 L190.030195,38.949 C190.030195,39.534 190.483222,40.01 191.040336,40.01 L197.596836,40.01 C198.15395,40.01 198.606977,39.534 198.606977,38.949 L198.606977,37.503 C198.606977,36.954 199.061986,36.508 199.622074,36.508 C200.182162,36.508 200.637172,36.954 200.637172,37.503 L200.637172,38.949 C200.637172,40.631 199.273135,42 197.596836,42 Z M202.660825,36.5684 C202.365415,36.5684 202.07298,36.4394 201.872736,36.1904 C201.720075,36.0004 201.645727,35.7724 201.644736,35.5464 C201.644736,35.2474 201.772614,34.9514 202.020441,34.7494 L204.124984,33.0244 L194.963332,33.0244 C194.402252,33.0244 193.947243,32.5654 193.947243,32.0004 C193.947243,31.4344 194.402252,30.9754 194.963332,30.9754 L204.124984,30.9754 L202.020441,29.2514 C201.585257,28.8944 201.51884,28.2494 201.872736,27.8104 C202.226632,27.3724 202.866025,27.3054 203.301208,27.6614 L207.608434,31.1924 C207.649078,31.2234 207.687739,31.2594 207.723426,31.2984 C207.762087,31.3394 207.797774,31.3834 207.828504,31.4304 C207.936556,31.5934 207.99207,31.7784 207.999009,31.9644 C207.999009,31.9764 208,31.9874 208,31.9994 L208,32.0014 C207.999009,32.0704 207.99207,32.1404 207.978191,32.2104 C207.933582,32.4234 207.822556,32.6244 207.646104,32.7764 C207.645112,32.7774 207.644121,32.7774 207.644121,32.7774 C207.637182,32.7844 207.630243,32.7904 207.623304,32.7964 L203.301208,36.3394 C203.11286,36.4934 202.885851,36.5684 202.660825,36.5684 Z" id="path-1"></path>
    </defs>
    <g id="ExportIcons" stroke="none" stroke-width="1" fill="none" fill-rule="evenodd">
        <g id="Icons" transform="translate(-186.000000, -20.000000)">
            <mask id="mask-2" fill="white">
                <use xlink:href="#path-1"></use>
            </mask>
            <use id="Combined-Shape" fill="#000000" xlink:href="#path-1"></use>
            <rect id="Rectangle" fill="#ffffff" mask="url(#mask-2)" x="186" y="20" width="24" height="24"></rect>
        </g>
    </g>
</svg>