<?xml version="1.0" encoding="UTF-8"?>
<svg width="22px" height="16px" viewBox="0 0 22 16" version="1.1" xmlns="http://www.w3.org/2000/svg" xmlns:xlink="http://www.w3.org/1999/xlink">
    <!-- Generator: sketchtool 54.1 (76490) - https://sketchapp.com -->
    <title>D544F540-A6BE-4151-AB59-D0C0111418E3</title>
    <desc>Created with sketchtool.</desc>
    <defs>
        <polygon id="path-1" points="0 8.01177956e-05 21.842906 8.01177956e-05 21.842906 15.9908737 0 15.9908737"></polygon>
    </defs>
    <g id="Desktop" stroke="none" stroke-width="1" fill="none" fill-rule="evenodd">
        <g id="2.-SIgn-up-01" transform="translate(-949.000000, -585.000000)">
            <g id="UI/Icons/Tigo" transform="translate(949.000000, 585.000000)">
                <g id="Group-3">
                    <mask id="mask-2" fill="white">
                        <use xlink:href="#path-1"></use>
                    </mask>
                    <g id="Clip-2"></g>
                    <path d="M14.3965083,5.54876553 C14.3965083,5.54876553 14.5505083,5.61293757 14.601727,5.44605585 C14.640227,5.26609886 14.7686177,4.07177629 13.3571801,3.68639995 C11.7147425,3.24975479 9.77736742,3.85345371 9.11014863,5.24046446 C8.87914862,5.72855048 8.63525798,6.42205585 8.59692986,7.11573327 C8.5326486,8.38713111 9.020258,9.7743139 10.3675862,10.4679913 C10.3675862,10.4679913 11.9457425,11.2383999 13.4982895,10.6990451 C13.4982895,10.6990451 14.6531177,10.2238623 14.6660083,9.36330315 C14.6916177,8.49001283 14.794227,7.26971176 14.0500083,7.25698058 C13.3057895,7.23134617 13.0620707,7.25698058 13.0620707,7.25698058 C13.0620707,7.25698058 13.2416801,8.682701 13.1775707,8.86248595 C13.1134613,9.05517412 12.7028519,9.5687225 11.4710238,9.1835182 C10.2520862,8.81104509 10.0853674,7.25698058 10.3803049,6.26807736 C10.6755862,5.27900209 11.9201332,4.88089457 12.7028519,4.94506661 C13.4855707,5.00923865 14.3965083,5.54876553 14.3965083,5.54876553 L14.3965083,5.54876553 Z M5.13244523,3.75057198 L5.13244523,8.79831389 C5.13244523,8.79831389 5.27355461,10.4292816 6.47977342,10.4936257 C7.68582035,10.5577978 8.07082037,9.99263646 8.09642975,9.13207733 C8.09642975,9.13207733 7.49332034,9.35057195 7.1084922,9.06790529 C6.71060156,8.79831389 6.72349218,8.3871311 6.72349218,8.3871311 L6.72349218,4.61113112 C6.72349218,4.61113112 6.46688279,3.68639994 5.13244523,3.75057198 L5.13244523,3.75057198 Z M1.53974213,3.78910961 L1.53974213,2.1708731 C1.53974213,2.1708731 0.500414045,2.02962579 -8.59375041e-05,3.30119565 L-8.59375041e-05,8.59255031 C-8.59375041e-05,8.59255031 0.0770859349,9.17061481 0.410523423,9.65870082 C0.718523413,10.1338836 1.27024214,10.5192599 2.09146087,10.5321632 C3.75950768,10.583432 4.04172642,9.76141049 3.8878983,8.84958256 C3.8878983,8.84958256 2.04007024,9.87702339 1.59113276,8.33586215 L1.59113276,5.17629236 L3.25917958,5.17629236 C3.25917958,5.17629236 4.01611705,5.11212032 3.87500768,3.78910961 L1.53974213,3.78910961 Z M18.6693211,0.0131096776 C18.7334305,0.0131096776 18.8104305,0.0131096776 18.8745399,0.000378494629 C20.9146962,-0.0254279574 21.697415,1.63134626 21.697415,1.63134626 L21.697415,2.74893768 C21.697415,2.74893768 21.042915,1.37448604 18.8489305,1.25904518 L18.6693211,1.25904518 C16.6162741,1.22050755 15.8208366,2.63332477 15.8208366,2.63332477 L15.8208366,1.70842153 C16.1415553,1.09199141 16.7831647,0.103088174 18.6693211,0.0131096776 L18.6693211,0.0131096776 Z M18.6693198,3.5451526 C20.9404761,3.60949668 21.7103042,5.62584085 21.8129136,6.39642153 C21.8899136,6.94867962 21.9026323,8.72106679 20.7735854,9.77431414 C20.3117573,10.2111314 19.6316479,10.557798 18.6693198,10.557798 L18.6052104,10.557798 C17.5402729,10.5321636 16.8343823,10.0826152 16.3596635,9.58162596 C15.371726,8.5027442 15.4614447,6.92304521 15.4614447,6.92304521 C15.448726,6.39642153 15.6154447,5.72855054 15.9748354,5.1121204 C16.4751635,4.26446445 17.2834916,3.53224937 18.6179292,3.5451526 L18.6693198,3.5451526 Z M18.6693202,9.18351833 C18.7848202,9.18351833 18.8745389,9.1706151 18.9386483,9.15788392 C19.2851483,9.10644306 20.3629764,8.66979789 20.2730858,7.01302368 C20.1962577,5.39461506 19.3621483,4.94506667 18.6693202,4.93233549 L18.6308202,4.93233549 C18.6308202,4.93233549 18.3101014,4.91943226 17.9636014,5.13775484 C17.5272108,5.40751829 17.0653827,6.01121722 17.0782733,7.11573336 C17.090992,8.63126026 17.976492,9.09353983 18.5538202,9.18351833 L18.6693202,9.18351833 Z M18.6693205,12.7282928 C19.1440392,12.2660132 19.3748673,11.8677336 19.3748673,11.8677336 C19.3748673,11.8677336 19.5417579,12.9595186 18.8874298,14.2310885 C18.8231486,14.3467014 18.7590392,14.4623143 18.6693205,14.565024 C17.8993205,15.5924649 16.2441642,16.0036477 14.7942268,15.9905725 C13.9217893,15.9905725 13.1646799,15.8493251 12.6385705,15.6822714 C12.189633,15.5282929 11.8945237,15.3485079 11.8945237,15.3485079 C10.2135862,14.5777552 10.3546956,11.89354 10.3546956,11.89354 C10.3546956,11.89354 11.304133,14.0640347 14.6017268,14.2567229 C16.603383,14.385067 17.9378205,13.4734111 18.6693205,12.7282928 L18.6693205,12.7282928 Z M4.93994528,2.15814195 C4.93994528,2.96726023 5.59444531,3.15977636 5.95366407,3.17267958 C6.0050547,3.17267958 6.05627345,3.17267958 6.09477345,3.15977636 C6.44127347,3.13414195 7.01860161,2.82584087 6.92888286,2.00399142 C6.87749223,1.5159054 6.56949222,1.28467959 6.14616408,1.22050755 C6.0820547,1.22050755 6.0050547,1.20760433 5.94077345,1.20760433 C5.4404453,1.23341078 4.92722653,1.55444303 4.93994528,2.15814195 L4.93994528,2.15814195 Z" id="Fill-1" fill="#213F99" mask="url(#mask-2)"></path>
                </g>
            </g>
        </g>
    </g>
</svg>