<?xml version="1.0" encoding="UTF-8"?>
<svg width="17px" height="14px" viewBox="0 0 17 14" version="1.1" xmlns="http://www.w3.org/2000/svg" xmlns:xlink="http://www.w3.org/1999/xlink">
    <!-- Generator: sketchtool 54.1 (76490) - https://sketchapp.com -->
    <title>8C169919-7DDC-4462-938B-5A3D4911EE21</title>
    <desc>Created with sketchtool.</desc>
    <g id="Desktop" stroke="none" stroke-width="1" fill="none" fill-rule="evenodd">
        <g id="2.-SIgn-up-01" transform="translate(-1144.000000, -585.000000)" fill="#4CA6FF">
            <g id="Twitter" transform="translate(1128.000000, 576.000000)">
                <path d="M33,10.6571852 C32.3679091,10.9382222 31.6940909,11.1243704 30.9919394,11.2151111 C31.7141818,10.7774815 32.2659091,10.0904444 32.5250303,9.26288889 C31.8517273,9.66992593 31.1078485,9.95718519 30.3150303,10.1179259 C29.6752121,9.42725926 28.7639091,9 27.7696667,9 C25.8399091,9 24.2862121,10.5871852 24.2862121,12.5331852 C24.2862121,12.8131852 24.3099091,13.0828148 24.3670909,13.338963 C21.4698788,13.1958519 18.9059697,11.7880741 17.1838182,9.644 C16.8829697,10.1723704 16.7067879,10.7774815 16.7067879,11.4292593 C16.7067879,12.652963 17.3280606,13.7371852 18.2548182,14.3651111 C17.6948485,14.3542222 17.145697,14.1893333 16.68,13.9300741 L16.68,13.968963 C16.68,15.6852593 17.8880303,17.1111852 19.4721212,17.4394074 C19.1887879,17.5182222 18.8791818,17.5560741 18.5587576,17.5560741 C18.335697,17.5560741 18.1100606,17.5431111 17.8988485,17.4954074 C18.3506364,18.8948889 19.6318182,19.9231111 21.1551212,19.9568148 C19.9697576,20.8963704 18.4639697,21.4631111 16.8340303,21.4631111 C16.5481212,21.4631111 16.2740606,21.4501481 16,21.4143704 C17.5439091,22.4234074 19.3737273,23 21.3467576,23 C27.7598788,23 31.266,17.6151852 31.266,12.948 C31.266,12.7914074 31.2608485,12.641037 31.2531212,12.4911852 C31.9449697,11.9934074 32.5260606,11.3722222 33,10.6571852" id="Fill-1"></path>
            </g>
        </g>
    </g>
</svg>