<?xml version="1.0" encoding="UTF-8"?>
<svg width="16px" height="17px" viewBox="0 0 16 17" version="1.1" xmlns="http://www.w3.org/2000/svg" xmlns:xlink="http://www.w3.org/1999/xlink">
    <!-- Generator: sketchtool 54.1 (76490) - https://sketchapp.com -->
    <desc>Created with sketchtool.</desc>
    <defs>
        <path d="M7,11 C7.55228475,11 8,11.4477153 8,12 L8,16 C8,16.5522847 7.55228475,17 7,17 C6.44771525,17 6,16.5522847 6,16 L6,12 C6,11.4477153 6.44771525,11 7,11 Z M17,11 C17.5522847,11 18,11.4477153 18,12 L18,16 C18,16.5522847 17.5522847,17 17,17 C16.4477153,17 16,16.5522847 16,16 L16,12 C16,11.4477153 16.4477153,11 17,11 Z M20,19 C20,19.5522847 19.5522847,20 19,20 L5,20 C4.44771525,20 4,19.5522847 4,19 C4,18.4477153 4.44771525,18 5,18 L19,18 C19.5522847,18 20,18.4477153 20,19 Z M11.4187618,3.18626653 C11.7664593,2.93791116 12.2335407,2.93791116 12.5812382,3.18626653 L19.5812382,8.18626653 C20.3728697,8.75171764 19.9728389,10 19,10 L5,10 C4.02716112,10 3.62713025,8.75171764 4.41876181,8.18626653 L11.4187618,3.18626653 Z M8.12046505,8 L15.8795349,8 L12,5.22890361 L8.12046505,8 Z M12,11 C13.6568542,11 15,12.3431458 15,14 C15,15.6568542 13.6568542,17 12,17 C10.3431458,17 9,15.6568542 9,14 C9,12.3431458 10.3431458,11 12,11 Z M12,13 C11.4477153,13 11,13.4477153 11,14 C11,14.5522847 11.4477153,15 12,15 C12.5522847,15 13,14.5522847 13,14 C13,13.4477153 12.5522847,13 12,13 Z" id="path-100"></path>
    </defs>
    <g id="Desktop" stroke="none" stroke-width="1" fill="none" fill-rule="evenodd">
        <g id="6.-Top-up" transform="translate(-356.000000, -336.000000)">
            <g id="bank-btn" transform="translate(336.000000, 325.000000)">
                <g id="UI/Icons/24-bank" transform="translate(16.000000, 8.000000)">
                    <mask id="mask-100" fill="white">
                        <use xlink:href="#path-100"></use>
                    </mask>
                    <path stroke="#979797" d="M7,11.5 C6.72385763,11.5 6.5,11.7238576 6.5,12 L6.5,16 C6.5,16.2761424 6.72385763,16.5 7,16.5 C7.27614237,16.5 7.5,16.2761424 7.5,16 L7.5,12 C7.5,11.7238576 7.27614237,11.5 7,11.5 Z M17,11.5 C16.7238576,11.5 16.5,11.7238576 16.5,12 L16.5,16 C16.5,16.2761424 16.7238576,16.5 17,16.5 C17.2761424,16.5 17.5,16.2761424 17.5,16 L17.5,12 C17.5,11.7238576 17.2761424,11.5 17,11.5 Z M19.5,19 C19.5,18.7238576 19.2761424,18.5 19,18.5 L5,18.5 C4.72385763,18.5 4.5,18.7238576 4.5,19 C4.5,19.2761424 4.72385763,19.5 5,19.5 L19,19.5 C19.2761424,19.5 19.5,19.2761424 19.5,19 Z M11.7093809,3.59313326 L4.7093809,8.59313326 C4.31356513,8.87585882 4.51358056,9.5 5,9.5 L19,9.5 C19.4864194,9.5 19.6864349,8.87585882 19.2906191,8.59313326 L12.2906191,3.59313326 C12.1167703,3.46895558 11.8832297,3.46895558 11.7093809,3.59313326 Z M17.4397675,8.5 L6.56023253,8.5 L12,4.6144518 L17.4397675,8.5 Z M12,11.5 C10.6192881,11.5 9.5,12.6192881 9.5,14 C9.5,15.3807119 10.6192881,16.5 12,16.5 C13.3807119,16.5 14.5,15.3807119 14.5,14 C14.5,12.6192881 13.3807119,11.5 12,11.5 Z M12,12.5 C12.8284271,12.5 13.5,13.1715729 13.5,14 C13.5,14.8284271 12.8284271,15.5 12,15.5 C11.1715729,15.5 10.5,14.8284271 10.5,14 C10.5,13.1715729 11.1715729,12.5 12,12.5 Z"></path>
                    <rect id="Rectangle" fill="#4C6180" mask="url(#mask-100)" x="0" y="0" width="24" height="24"></rect>
                </g>
            </g>
        </g>
    </g>
</svg>