<?xml version="1.0" encoding="UTF-8"?>
<svg width="18px" height="18px" viewBox="0 0 18 18" version="1.1" xmlns="http://www.w3.org/2000/svg" xmlns:xlink="http://www.w3.org/1999/xlink">
    <defs>
        <path d="M17.5,9.16666667 L16.6083333,9.16666667 C16.2257621,6.14984141 13.8501586,3.77423787 10.8333333,3.39166667 L10.8333333,2.5 C10.8333333,2.03976271 10.4602373,1.66666667 10,1.66666667 C9.53976271,1.66666667 9.16666667,2.03976271 9.16666667,2.5 L9.16666667,3.39166667 C6.14984141,3.77423787 3.77423787,6.14984141 3.39166667,9.16666667 L2.5,9.16666667 C2.03976271,9.16666667 1.66666667,9.53976271 1.66666667,10 C1.66666667,10.4602373 2.03976271,10.8333333 2.5,10.8333333 L3.39166667,10.8333333 C3.77423787,13.8501586 6.14984141,16.2257621 9.16666667,16.6083333 L9.16666667,17.5 C9.16666667,17.9602373 9.53976271,18.3333333 10,18.3333333 C10.4602373,18.3333333 10.8333333,17.9602373 10.8333333,17.5 L10.8333333,16.6083333 C13.8501586,16.2257621 16.2257621,13.8501586 16.6083333,10.8333333 L17.5,10.8333333 C17.9602373,10.8333333 18.3333333,10.4602373 18.3333333,10 C18.3333333,9.53976271 17.9602373,9.16666667 17.5,9.16666667 Z M10,15 C7.23857625,15 5,12.7614237 5,10 C5,7.23857625 7.23857625,5 10,5 C12.7614237,5 15,7.23857625 15,10 C15,11.3260824 14.4732158,12.597852 13.5355339,13.5355339 C12.597852,14.4732158 11.3260824,15 10,15 Z M10,7.5 C8.61928813,7.5 7.5,8.61928813 7.5,10 C7.5,11.3807119 8.61928813,12.5 10,12.5 C11.3807119,12.5 12.5,11.3807119 12.5,10 C12.5,8.61928813 11.3807119,7.5 10,7.5 Z M10,10.8333333 C9.53976271,10.8333333 9.16666667,10.4602373 9.16666667,10 C9.16666667,9.53976271 9.53976271,9.16666667 10,9.16666667 C10.4602373,9.16666667 10.8333333,9.53976271 10.8333333,10 C10.8333333,10.4602373 10.4602373,10.8333333 10,10.8333333 Z" id="path-111"></path>
    </defs>
    <g id="Client" stroke="none" stroke-width="1" fill="none" fill-rule="evenodd">
        <g id="3.3.-Top-up-cash-Copy" transform="translate(-360.000000, -73.000000)">
            <g id="Group-5" transform="translate(359.000000, 72.000000)">
                <g id="UI/Icons/24-crosshair">
                    <mask id="mask-211" fill="white">
                        <use xlink:href="#path-111"></use>
                    </mask>
                    <use id="Icon-Shape" fill="#000000" fill-rule="nonzero" xlink:href="#path-111"></use>
                    <rect id="Rectangle" fill="#3878ff" fill-rule="evenodd" mask="url(#mask-211)" x="0" y="0" width="20" height="20"></rect>
                </g>
            </g>
        </g>
    </g>
</svg>