<?xml version="1.0" encoding="UTF-8"?>
<svg width="36px" height="56px" viewBox="14 12 36 56" version="1.1" xmlns="http://www.w3.org/2000/svg" xmlns:xlink="http://www.w3.org/1999/xlink">
    <defs>
        <path d="M3,16 C3,8.82 8.82,3 16,3 C23.18,3 29,8.82 29,16 C29,23.18 23.18,29 16,29 C8.82,29 3,23.18 3,16 Z M0,15.14 C0,29.14 9.54,39.71 14.8,43.6 C15.52,44.13 16.48,44.13 17.2,43.6 C22.46,39.71 32,29.14 32,15.14 C32,6.06 24,-2.84217094e-14 16,-2.84217094e-14 C8,-2.84217094e-14 0,6.06 0,15.14 Z" id="path-144"></path>
        <filter x="-79.7%" y="-51.1%" width="259.4%" height="218.2%" filterUnits="objectBoundingBox" id="filter-109">
            <!--<feMorphology radius="1.5" operator="erode" in="SourceAlpha" result="shadowSpreadOuter1"></feMorphology>-->
            <!--<feOffset dx="0" dy="5" in="shadowSpreadOuter1" result="shadowOffsetOuter1"></feOffset>-->
            <!--<feGaussianBlur stdDeviation="2.5" in="shadowOffsetOuter1" result="shadowBlurOuter1"></feGaussianBlur>-->
            <!--<feColorMatrix values="0 0 0 0 0   0 0 0 0 0   0 0 0 0 0  0 0 0 0.2 0" type="matrix" in="shadowBlurOuter1" result="shadowMatrixOuter1"></feColorMatrix>-->
            <!--<feMorphology radius="1" operator="dilate" in="SourceAlpha" result="shadowSpreadOuter2"></feMorphology>-->
            <!--<feOffset dx="0" dy="3" in="shadowSpreadOuter2" result="shadowOffsetOuter2"></feOffset>-->
            <!--<feGaussianBlur stdDeviation="7" in="shadowOffsetOuter2" result="shadowBlurOuter2"></feGaussianBlur>-->
            <!--<feColorMatrix values="0 0 0 0 0   0 0 0 0 0   0 0 0 0 0  0 0 0 0.12 0" type="matrix" in="shadowBlurOuter2" result="shadowMatrixOuter2"></feColorMatrix>-->
            <!--<feMorphology radius="0.5" operator="dilate" in="SourceAlpha" result="shadowSpreadOuter3"></feMorphology>-->
            <!--<feOffset dx="0" dy="8" in="shadowSpreadOuter3" result="shadowOffsetOuter3"></feOffset>-->
            <!--<feGaussianBlur stdDeviation="5" in="shadowOffsetOuter3" result="shadowBlurOuter3"></feGaussianBlur>-->
            <!--<feColorMatrix values="0 0 0 0 0   0 0 0 0 0   0 0 0 0 0  0 0 0 0.14 0" type="matrix" in="shadowBlurOuter3" result="shadowMatrixOuter3"></feColorMatrix>-->
            <feMerge>
                <feMergeNode in="shadowMatrixOuter1"></feMergeNode>
                <feMergeNode in="shadowMatrixOuter2"></feMergeNode>
                <feMergeNode in="shadowMatrixOuter3"></feMergeNode>
            </feMerge>
        </filter>
    </defs>
    <g id="Desktop-2" stroke="none" stroke-width="1" fill="none" fill-rule="evenodd">
        <g id="3.3.-Top-up-cash-Copy" transform="translate(-657.000000, -176.000000)">
            <g id="UI/Icons/48-0location" transform="translate(673.000000, 189.000000)">
                <g id="Combined-Shape">
                    <use fill="black" fill-opacity="1" filter="url(#filter-109)" xlink:href="#path-144"></use>
                    <use fill="#3878FF" fill-rule="evenodd" xlink:href="#path-144"></use>
                </g>
                <circle id="Oval" fill="#FFFFFF" fill-rule="evenodd" cx="16" cy="16" r="13"></circle>
                <path d="M14,18.0051 C14,18.5541 14.446,19.0001 14.995,19.0001 L17.005,19.0001 C17.554,19.0001 18,18.5541 18,18.0051 L18,15.9951 C18,15.4461 17.554,15.0001 17.005,15.0001 L14.995,15.0001 C14.446,15.0001 14,15.4461 14,15.9951 L14,18.0051 Z" id="Fill-6" fill="#3878FF" fill-rule="evenodd"></path>
                <path d="M21,20 C21,20.551 20.551,21 20,21 L12,21 C11.449,21 11,20.551 11,20 L11,14 C11,13.979 10.989,13.961 10.988,13.94 L16,8.929 L21.012,13.94 C21.011,13.961 21,13.979 21,14 L21,20 Z M20.983,11.083 C20.985,11.055 21,11.03 21,11 L21,8 C21,7.448 20.552,7 20,7 C19.448,7 19,7.448 19,8 L19,9.101 L16.707,6.808 C16.316,6.417 15.684,6.417 15.293,6.808 L7.808,14.293 C7.417,14.684 7.417,15.316 7.808,15.707 C8.133,16.032 8.619,16.07 9,15.854 L9,20 C9,21.654 10.346,23 12,23 L20,23 C21.654,23 23,21.654 23,20 L23,15.854 C23.152,15.94 23.315,16 23.485,16 C23.741,16 23.997,15.902 24.192,15.707 C24.583,15.316 24.583,14.684 24.192,14.293 L20.983,11.083 Z" id="Fill-4" fill="#3878FF" fill-rule="evenodd"></path>
            </g>
        </g>
    </g>
</svg>