<?xml version="1.0" encoding="UTF-8"?>
<svg width="32px" height="32px" viewBox="0 0 32 32" version="1.1" xmlns="http://www.w3.org/2000/svg" xmlns:xlink="http://www.w3.org/1999/xlink">
    <!-- Generator: sketchtool 54.1 (76490) - https://sketchapp.com -->
    <title>3F5EFBE0-EAAC-442E-86AB-EBAD65F509BD</title>
    <desc>Created with sketchtool.</desc>
    <g id="Desktop" stroke="none" stroke-width="1" fill="none" fill-rule="evenodd">
        <g id="4.-Status_rejected" transform="translate(-623.000000, -370.000000)">
            <g id="Group-4" transform="translate(413.000000, 354.000000)">
                <g id="Group-6" transform="translate(210.000000, 16.000000)">
                    <g id="Group-4-Copy" fill="#FFFFFF">
                        <circle id="Oval-Copy" cx="16" cy="16" r="16"></circle>
                    </g>
                    <path d="M15.6201,11.92 C15.5001,11.87 15.3801,11.8 15.2901,11.71 C15.1091,11.52 15.0001,11.26 15.0001,11 C15.0001,10.74 15.1091,10.48 15.2901,10.29 L15.4401,10.17 C15.5001,10.13 15.5601,10.1 15.6201,10.08 C15.6801,10.05 15.7401,10.03 15.8001,10.02 C16.0001,9.98 16.2001,10 16.3801,10.08 C16.5001,10.13 16.6091,10.2 16.7101,10.29 C16.8901,10.48 17.0001,10.74 17.0001,11 C17.0001,11.26 16.8901,11.52 16.7101,11.71 C16.5201,11.89 16.2601,12 16.0001,12 C15.9301,12 15.8701,11.99 15.8001,11.98 C15.7401,11.97 15.6801,11.95 15.6201,11.92 Z M15,15.035 C15,14.464 15.447,14 16,14 C16.553,14 17,14.464 17,15.035 L17,20.965 C17,21.536 16.553,22 16,22 C15.447,22 15,21.536 15,20.965 L15,15.035 Z" id="Combined-Shape" fill="#FFCE4D"></path>
                </g>
            </g>
        </g>
    </g>
</svg>