<?xml version="1.0" encoding="UTF-8"?>
<svg width="100px" height="96px" viewBox="0 0 100 96" version="1.1" xmlns="http://www.w3.org/2000/svg" xmlns:xlink="http://www.w3.org/1999/xlink">
    <!-- Generator: sketchtool 55 (78076) - https://sketchapp.com -->
    <title>4F0A364A-2C1A-4DE5-8A7A-F38A4F66D53D</title>
    <desc>Created with sketchtool.</desc>
    <g id="Desktop" stroke="none" stroke-width="1" fill="none" fill-rule="evenodd">
        <g id="4.-Status-DOne" transform="translate(-417.000000, -442.000000)" fill="#3878FF">
            <g id="Group-20" transform="translate(417.000000, 442.000000)">
                <path d="M55.790332,17.4391886 C58.9295898,17.0621988 62.1063477,17.0598621 65.2461914,17.4321785 L65.2461914,13.3435132 L55.790332,13.3435132 L55.790332,17.4391886 Z M50.7526367,6.7226288 C50.7526367,8.22591481 51.9790039,9.44879513 53.4870117,9.44879513 L53.837207,9.44879513 L67.1993164,9.44879513 L67.549707,9.44879513 C69.0575195,9.44879513 70.284082,8.22610953 70.284082,6.7226288 C70.284082,5.2193428 69.0575195,3.99646247 67.549707,3.99646247 L53.4870117,3.99646247 C51.9790039,3.99646247 50.7526367,5.2193428 50.7526367,6.7226288 Z M99.8071289,52.5586369 C100.692285,61.4373712 98.5108398,70.4249574 93.6641602,77.8666126 C93.0768555,78.7685842 91.8674805,79.0250385 90.9624023,78.4393022 C90.0579102,77.8537606 89.8006836,76.6476268 90.3881836,75.7456552 C99.4592773,61.8182556 97.4805664,43.172641 85.6838867,31.4109858 C71.8235352,17.5928276 49.2717773,17.5928276 35.412207,31.4109858 C21.5520508,45.2295335 21.5520508,67.7135903 35.412207,81.5319432 C47.224707,93.3091765 65.9422852,95.2710426 79.918457,86.1971927 C80.8223633,85.6100933 82.0323242,85.8651846 82.6209961,86.7663773 C83.2098633,87.66757 82.9540039,88.8738986 82.0500977,89.4608032 C75.665332,93.6061339 68.1405273,95.8053712 60.5188477,95.8053712 C59.2293945,95.8053712 57.9381836,95.7424746 56.6479492,95.6153185 C47.6075195,94.7248357 39.0848633,90.7014037 32.6499023,84.2859554 C28.5760742,80.2241623 25.5817383,75.4878377 23.6655273,70.434499 L9.76572266,70.434499 C8.68720703,70.434499 7.81259766,69.5625152 7.81259766,68.4870426 C7.81259766,67.41157 8.68720703,66.5397809 9.76572266,66.5397809 L22.419043,66.5397809 C21.7708008,64.0829209 21.3643555,61.5756268 21.1995117,59.0548966 L12.5000977,59.0548966 C11.4217773,59.0548966 10.5469727,58.1833022 10.5469727,57.1076349 C10.5469727,56.0321623 11.4217773,55.1603732 12.5000977,55.1603732 L21.137207,55.1603732 C21.2206055,52.6462637 21.5436523,50.1391643 22.106543,47.6754888 L1.95322266,47.6754888 C0.874707031,47.6754888 9.76562497e-05,46.8036998 9.76562497e-05,45.7282272 C9.76562497e-05,44.6527546 0.874707031,43.7809655 1.95322266,43.7809655 L23.2102539,43.7809655 C24.0891602,41.1969493 25.244043,38.6867343 26.6760742,36.2964706 L15.2672852,36.2964706 C14.1887695,36.2964706 13.3139648,35.4246815 13.3139648,34.3490142 C13.3139648,33.2735416 14.1887695,32.4017525 15.2672852,32.4017525 L29.1856445,32.4017525 C29.2356445,32.4017525 29.284668,32.4054523 29.3336914,32.4091521 C30.3456055,31.1060446 31.4510742,29.8522028 32.6499023,28.6569736 C38.1280273,23.1952941 44.8301758,19.6802921 51.884082,18.1086572 L51.884082,13.1472292 C48.9944336,12.4302475 46.8461914,9.82227992 46.8461914,6.72243408 C46.8461914,3.07170791 49.8250977,0.101744422 53.4870117,0.101744422 L67.549707,0.101744422 C71.2114258,0.101744422 74.190332,3.07170791 74.190332,6.72243408 C74.190332,9.82247465 72.0422852,12.4304422 69.1524414,13.1472292 L69.1524414,18.0948316 C76.2280273,19.6598458 82.9522461,23.1795213 88.4459961,28.6567789 C94.874707,35.0661907 98.9094727,43.5546937 99.8071289,52.5586369 Z M88.0001,81 C88.5258737,81 89.039848,81.214 89.4138293,81.586 C89.7862107,81.958 90,82.474 90,83 C90,83.526 89.7860107,84.042 89.4138293,84.414 C89.039848,84.788 88.5260737,85 88.0001,85 C87.4721264,85 86.9579521,84.788 86.5863707,84.414 C86.2123894,84.042 86,83.526 86,83 C86,82.474 86.2123894,81.958 86.5863707,81.586 C86.9579521,81.214 87.4719264,81 88.0001,81 Z M60.4999017,82.1323136 C75.1495119,82.1323136 87.0676555,70.4093559 87.0676555,56.0000967 C87.0676555,41.5906441 75.1495119,29.8678798 60.4999017,29.8678798 C45.8502915,29.8678798 33.9321479,41.5906441 33.9321479,56.0000967 C33.9321479,70.4093559 45.8502915,82.1323136 60.4999017,82.1323136 Z M60.4999017,26 C77.3175016,26 91,39.4578084 91,55.9999033 C91,72.5421916 77.3175016,86 60.4999017,86 C43.6821052,86 30,72.5421916 30,55.9999033 C30,39.4578084 43.6821052,26 60.4999017,26 Z M60.3312615,58.0503313 C61.5222873,58.0503313 62.4913368,57.0692337 62.4913368,55.8635973 C62.4913368,54.657566 61.5222873,53.6766658 60.3312615,53.6766658 C59.1402356,53.6766658 58.1711861,54.657566 58.1711861,55.8635973 C58.1711861,57.0692337 59.1402356,58.0503313 60.3312615,58.0503313 Z M72.6700627,40.5783796 C73.4321554,39.8072068 74.6668742,39.8072068 75.4285768,40.5783796 C76.1904744,41.3495524 76.1904744,42.6000175 75.4285768,43.3711903 L75.1451571,43.6581337 L65.7673405,53.1525447 C66.1668198,53.9705211 66.3925023,54.8905964 66.3925023,55.8632023 C66.3925023,59.2470809 63.673585,62 60.3312615,62 C56.9887429,62 54.2700207,59.2470809 54.2700207,55.8632023 C54.2700207,54.8905964 54.495313,53.9705211 54.8951824,53.1525447 L50.5711306,48.774732 C49.8096231,48.0037567 49.8096231,46.7530941 50.5711306,45.9821188 C51.3332233,45.2107485 52.5679422,45.2107485 53.3298398,45.9821188 L57.6536965,50.359734 C58.461823,49.955288 59.3704044,49.7267996 60.3312615,49.7267996 C61.2919235,49.7267996 62.2007,49.955288 63.0088264,50.359734 L72.6700627,40.5783796 Z M81.9498394,55 C83.0817331,55 84,55.8955552 84,56.9999 C84,58.1044448 83.0817331,59 81.9498394,59 L80.0501606,59 C78.9182669,59 78,58.1044448 78,56.9999 C78,55.8955552 78.9182669,55 80.0501606,55 L81.9498394,55 Z M40.9496993,55 C42.0818753,55 43,55.8955552 43,57.0001 C43,58.1044448 42.0818753,59 40.9496993,59 L39.0503007,59 C37.9181247,59 37,58.1044448 37,57.0001 C37,55.8955552 37.9181247,55 39.0503007,55 L40.9496993,55 Z M61,39 C59.8956,39 59,38.0821117 59,36.9497693 L59,35.0502307 C59,33.9178883 59.8956,33 61,33 C62.1044,33 63,33.9178883 63,35.0502307 L63,36.9497693 C63,38.0821117 62.1044,39 61,39 Z M61,74 C62.1044,74 63,74.9179196 63,76.0503007 L63,77.9496993 C63,79.0820804 62.1044,80 61,80 C59.8956,80 59,79.0820804 59,77.9496993 L59,76.0503007 C59,74.9179196 59.8956,74 61,74 Z M2,66 C2.526,66 3.042,66.2139893 3.4138,66.5861707 C3.786,66.9579521 4,67.4739263 4,67.9999 C4,68.5260737 3.7858,69.0418479 3.4138,69.4138293 C3.042,69.7860107 2.526,70 2,70 C1.474,70 0.9582,69.7860107 0.586,69.4138293 C0.2138,69.0418479 0,68.5280736 0,67.9999 C0,67.4739263 0.214,66.9579521 0.586,66.5861707 C0.958,66.2139893 1.474,66 2,66 Z" id="Combined-Shape"></path>
            </g>
        </g>
    </g>
</svg>