<?xml version="1.0" encoding="UTF-8"?>
<svg width="20px" height="20px" viewBox="0 0 20 20" version="1.1" xmlns="http://www.w3.org/2000/svg" xmlns:xlink="http://www.w3.org/1999/xlink">
    <!-- Generator: sketchtool 54.1 (76490) - https://sketchapp.com -->
    <title>C24E6693-5198-4DCE-8FA9-77BE5C4A1DF3</title>
    <desc>Created with sketchtool.</desc>
    <defs>
        <path d="M20,19 C20,19.55 19.55,20 19,20 L12,20 C11.45,20 11,19.55 11,19 L11,13 L13,13 L13.5,13 L14.5,13 C15.1,13 15.64,12.74 16,12.33 C16.31,11.98 16.5,11.52 16.5,11 L16.5,8 L19,8 C19.55,8 20,8.45 20,9 L20,19 Z M9.56,11.13 C9.2,11.51 9,12 9,12.52 L9,16 L5,16 C4.45,16 4,15.55 4,15 L4,9 L7.5,9 C8.61,9 9.5,8.11 9.5,7 L9.5,4 L12,4 C12.55,4 13,4.45 13,5 L13,7.56 L9.56,11.13 Z M7.5,4.88 L7.5,7 L5.46,7 L7.5,4.88 Z M13.5,9.92 L14,9.4 L14.5,8.88 L14.5,11 L13,11 L12.46,11 L13.5,9.92 Z M20,6 L15.35,6 C15.23,6 15.11,6.01 15,6.04 L15,4 C15,2.9 14.1,2 13,2 L8.35,2 C7.81,2 7.29,2.22 6.91,2.61 L2.56,7.13 C2.2,7.51 2,8 2,8.52 L2,16 C2,17.11 2.89,18 4,18 L9,18 L9,20 C9,21.11 9.89,22 11,22 L20,22 C21.1,22 22,21.1 22,20 L22,8 C22,6.9 21.1,6 20,6 L20,6 Z" id="path-1"></path>
    </defs>
    <g id="Desktop" stroke="none" stroke-width="1" fill="none" fill-rule="evenodd" opacity="0.649999976">
        <g id="6.2.-Top-up-Bank" transform="translate(-850.000000, -372.000000)">
            <g id="UI/Icons/24-copy-Copy" transform="translate(848.000000, 370.000000)">
                <mask id="mask-2" fill="white">
                    <use xlink:href="#path-1"></use>
                </mask>
                <use id="Fill-1" fill="#000000" xlink:href="#path-1"></use>
                <rect id="Rectangle" fill="#4C6180" mask="url(#mask-2)" x="0" y="0" width="24" height="24"></rect>
            </g>
        </g>
    </g>
</svg>