<?xml version="1.0" encoding="UTF-8"?>
<svg width="104px" height="72px" viewBox="0 0 104 72" version="1.1" xmlns="http://www.w3.org/2000/svg" xmlns:xlink="http://www.w3.org/1999/xlink">
    <!-- Generator: sketchtool 54.1 (76490) - https://sketchapp.com -->
    <title>41E80874-FF5F-48E8-A783-0849AC56423F</title>
    <desc>Created with sketchtool.</desc>
    <defs>
        <path d="M89.6000003,15.9872735 C97.2173872,15.9872096 103.401161,22.2859191 103.432001,30.0763641 C103.431938,37.8500845 97.2755556,44.1548349 89.6745911,44.1653256 C82.0736267,44.1758163 75.9006283,37.8880827 75.8800504,30.1143908 C75.8594724,22.340699 81.9990917,16.018874 89.6000003,15.9872735 Z M89.6000003,37.7509101 C91.5907562,37.7552757 93.5010887,36.9478493 94.9080179,35.5074087 C96.3149472,34.0669682 97.1023926,32.1123589 97.0960006,30.0763644 C97.082753,25.8567395 93.7312462,22.4449185 89.6053736,22.450935 C85.479501,22.4569516 82.137521,25.8785334 82.1360391,30.0981798 C82.1345572,34.3178262 85.474133,37.7418624 89.6000003,37.7509101 Z M37.0880005,40.9581823 L37.0880005,44.4763641 L30.6880005,44.4763641 L30.6880005,29.5036367 C30.9640727,22.9424357 36.2110095,17.7487732 42.6320005,17.6809093 C46.0105642,17.6680491 49.233348,19.1329508 51.4880004,21.7063639 C53.6910978,19.1366176 56.8743161,17.6684805 60.2160004,17.6809093 C66.6554154,17.7267165 71.9308048,22.924174 72.2160004,29.5036367 L72.2160004,44.4763641 L65.8800004,44.4763641 L65.8800004,30.0109094 C65.8800004,26.2963639 63.2960004,23.3427275 60.2160004,23.3427275 C57.1360004,23.3427275 54.6160004,26.2963639 54.6160004,30.0109094 L54.6160004,44.4763641 L48.2800004,44.4763641 L48.2800004,30.0109094 C48.2800004,26.2963639 45.7600004,23.3427275 42.6240005,23.3427275 C39.6720005,23.3427275 37.2720005,26.0509094 37.0880005,29.5036367 L37.0880005,40.9581823 Z M27.4320007,30.0763633 C27.3934921,37.7934842 21.3210042,44.0585568 13.7760003,44.1654542 C6.16772537,44.1654541 -2.40243839e-14,37.8575532 -2.30926389e-14,30.0763633 C-2.2160894e-14,22.2951733 6.16772537,15.9872725 13.7760003,15.9872724 C16.4196408,15.9719846 19.0084965,16.7577516 21.2160005,18.2454542 L21.2160005,9.18818144 L27.4320007,9.18818144 L27.4320007,30.0763633 Z M13.7119997,37.8081809 C15.7197237,37.814718 17.6471756,37.00248 19.0676086,35.5513001 C20.4880415,34.1001202 21.284268,32.1297228 21.2799996,30.0763631 C21.2667305,25.8272435 17.8933872,22.3906822 13.7386722,22.3937077 C9.58395723,22.3967333 6.21540252,25.8382042 6.20805,30.0873388 C6.20069749,34.3364734 9.55732121,37.7901162 13.7119997,37.8081809 Z M21.2319992,-1.36052785e-14 L27.423999,-1.36052785e-14 L27.423999,6.01363629 L21.2319992,6.01363629 L21.2319992,-1.36052785e-14 Z M51.7039982,63.9163637 C66.7119978,63.9163637 79.9999974,57.8781819 87.8079971,48.7554547 C82.4559973,62.0263637 68.3119977,71.5254546 51.7039982,71.5254546 C35.1999987,71.5254546 21.1199992,62.0918183 15.7039993,48.8781819 C23.5919991,57.9354546 36.7599987,63.9163637 51.7039982,63.9163637 Z" id="path-1"></path>
    </defs>
    <g id="Desktop" stroke="none" stroke-width="1" fill="none" fill-rule="evenodd">
        <g id="1.1.-Log-In-/-Admin" transform="translate(-628.000000, -48.000000)">
            <g id="Group" transform="translate(628.000000, 48.000000)">
                <g id="UI-/-Icons-/-logo-dimo-Copy-2">
                    <mask id="mask-2" fill="white">
                        <use xlink:href="#path-1"></use>
                    </mask>
                    <use id="Mask" fill="#0A90F8" fill-rule="nonzero" xlink:href="#path-1"></use>
                    <rect id="Rectangle" fill="#FFFFFF" mask="url(#mask-2)" x="0" y="0" width="104" height="72"></rect>
                </g>
            </g>
        </g>
    </g>
</svg>