<?xml version="1.0" encoding="UTF-8"?>
<svg width="48px" height="48px" viewBox="0 0 48 48" version="1.1" xmlns="http://www.w3.org/2000/svg" xmlns:xlink="http://www.w3.org/1999/xlink">
    <!-- Generator: sketchtool 54.1 (76490) - https://sketchapp.com -->
    <title>53E3B3FD-4D50-49C7-8980-19BFE01FD395</title>
    <desc>Created with sketchtool.</desc>
    <defs>
        <path d="M39.545,39.545 C43.697,35.393 45.984,29.872 45.984,24 C45.984,18.127 43.697,12.607 39.545,8.454 C35.393,4.302 29.872,2.015 24,2.015 C18.128,2.015 12.607,4.302 8.455,8.454 C4.303,12.607 2.016,18.127 2.016,24 C2.016,29.872 4.303,35.393 8.455,39.545 C12.607,43.697 18.128,45.983 24,45.983 C29.872,45.983 35.393,43.697 39.545,39.545 Z M40.971,7.029 C45.503,11.562 48,17.589 48,24 C48,30.41 45.503,36.437 40.971,40.97 C36.438,45.503 30.411,48 24,48 C17.589,48 11.563,45.503 7.029,40.97 C2.497,36.437 0,30.41 0,24 C0,17.589 2.497,11.562 7.029,7.029 C11.563,2.496 17.589,0 24,0 C30.411,0 36.438,2.496 40.971,7.029 Z M43.3414,26.9386 C43.8834,27.0476 44.2334,27.5756 44.1234,28.1166 C43.3264,32.0536 41.3884,35.6506 38.5194,38.5196 C34.6414,42.3976 29.4854,44.5336 24.0004,44.5336 C23.4474,44.5336 23.0004,44.0856 23.0004,43.5336 C23.0004,42.9816 23.4474,42.5336 24.0004,42.5336 C28.9504,42.5336 33.6054,40.6056 37.1054,37.1056 C39.6954,34.5156 41.4444,31.2706 42.1634,27.7206 C42.2724,27.1786 42.8014,26.8296 43.3414,26.9386 Z M44.5108,23.003 C44.5268,23.334 44.5338,23.666 44.5338,24 C44.5338,24.552 44.0868,25 43.5338,25 C42.9818,25 42.5338,24.552 42.5338,24 C42.5338,23.698 42.5278,23.398 42.5128,23.099 C42.4868,22.547 42.9118,22.079 43.4638,22.052 C44.0008,22.033 44.4838,22.451 44.5108,23.003 Z M36.1285,17.0592 C36.6435,16.5442 36.6435,15.7062 36.1285,15.1912 C35.8795,14.9432 35.5485,14.8062 35.1945,14.8062 C34.8405,14.8062 34.5095,14.9432 34.2615,15.1912 L20.2915,29.1612 L18.8775,30.5752 L17.4625,29.1612 L12.8855,24.5842 C12.6365,24.3352 12.3055,24.1982 11.9515,24.1982 C11.5975,24.1982 11.2665,24.3352 11.0175,24.5832 C10.5035,25.0992 10.5035,25.9362 11.0175,26.4512 L17.9435,33.3772 C18.1965,33.6292 18.5195,33.7632 18.8775,33.7632 C19.2345,33.7632 19.5575,33.6292 19.8115,33.3762 L36.1285,17.0592 Z M37.5425,13.7772 C38.8365,15.0722 38.8365,17.1782 37.5425,18.4732 L21.2255,34.7912 C20.5975,35.4182 19.7635,35.7632 18.8775,35.7632 C17.9905,35.7632 17.1565,35.4182 16.5295,34.7912 L9.6035,27.8652 C8.3095,26.5712 8.3095,24.4642 9.6035,23.1692 C10.2515,22.5222 11.1015,22.1992 11.9515,22.1992 C12.8015,22.1992 13.6515,22.5222 14.2995,23.1692 L18.8775,27.7472 L32.8465,13.7772 C33.4945,13.1302 34.3445,12.8062 35.1945,12.8062 C36.0455,12.8062 36.8955,13.1302 37.5425,13.7772 Z" id="path-1"></path>
    </defs>
    <g id="Desktop" stroke="none" stroke-width="1" fill="none" fill-rule="evenodd">
        <g id="3.-First-Login" transform="translate(-912.000000, -370.000000)">
            <g id="check" transform="translate(911.999900, 370.000500)">
                <mask id="mask-2" fill="white">
                    <use xlink:href="#path-1"></use>
                </mask>
                <use id="Mask" fill="#000000" xlink:href="#path-1"></use>
                <rect id="Rectangle" fill="#4C6180" mask="url(#mask-2)" x="0" y="0" width="48" height="48"></rect>
            </g>
        </g>
    </g>
</svg>