<?xml version="1.0" encoding="UTF-8"?>
<svg width="34px" height="46px" viewBox="0 0 34 46" version="1.1" xmlns="http://www.w3.org/2000/svg" xmlns:xlink="http://www.w3.org/1999/xlink">
    <!-- Generator: sketchtool 54.1 (76490) - https://sketchapp.com -->
    <title>BF0D9F26-B20C-45A4-858C-275D029537CC</title>
    <desc>Created with sketchtool.</desc>
    <defs>
        <path d="M11.9941,24.97155 C12.5471,24.97155 12.9921,25.41655 12.9921,25.96955 C12.9921,26.52255 12.5471,26.96655 11.9941,26.96655 C11.4411,26.96655 10.9961,26.52255 10.9961,25.96955 C10.9961,25.41655 11.4421,24.97155 11.9941,24.97155 Z M25.7153,1.08775 C26.2643,1.14375 26.6633,1.63475 26.6073,2.18375 C26.5543,2.69775 26.1203,3.08075 25.6143,3.08075 C25.5813,3.08075 25.5473,3.07875 25.5123,3.07475 C24.5043,2.97175 23.4553,2.97175 22.4473,3.07475 C21.8983,3.13175 21.4083,2.73175 21.3523,2.18375 C21.2963,1.63475 21.6953,1.14375 22.2443,1.08775 C23.3863,0.97075 24.5723,0.97075 25.7153,1.08775 Z M31.1201,44.30065 C31.3351,44.80865 31.0971,45.39465 30.5891,45.60965 C28.4951,46.49465 26.2711,46.94365 23.9791,46.94365 C16.9071,46.94365 10.7751,42.60865 8.2351,36.33165 C8.0281,35.82065 8.2751,35.23865 8.7861,35.03165 C9.2981,34.82465 9.8801,35.07165 10.0861,35.58265 C12.3891,41.27065 17.8421,44.94665 23.9791,44.94665 C26.0021,44.94665 27.9641,44.55065 29.8111,43.76965 C30.3191,43.55465 30.9051,43.79265 31.1201,44.30065 Z M7.999,24.97055 C8.551,24.97055 8.998,25.41755 8.998,25.96955 L8.998,29.96455 C8.998,30.51555 8.551,30.96355 7.999,30.96355 C7.448,30.96355 7,30.51555 7,29.96455 L7,25.96955 C7,25.41755 7.448,24.97055 7.999,24.97055 Z M18.6792,2.86515 C18.8942,3.37315 18.6562,3.95915 18.1482,4.17415 C12.5902,6.52615 8.9982,11.94515 8.9982,17.97915 L8.9982,21.97415 C8.9982,22.52615 8.5512,22.97315 7.9992,22.97315 C7.4482,22.97315 7.0002,22.52615 7.0002,21.97415 L7.0002,17.97915 C7.0002,11.14015 11.0712,4.99915 17.3702,2.33415 C17.8782,2.11915 18.4642,2.35715 18.6792,2.86515 Z M39.9599,27.46765 C40.5119,27.46765 40.9589,27.91465 40.9589,28.46665 L40.9589,29.96465 C40.9589,35.05065 38.7069,39.82665 34.7799,43.06565 C34.3539,43.41665 33.7249,43.35665 33.3739,42.93065 C33.0229,42.50565 33.0829,41.87565 33.5089,41.52565 C36.9739,38.66665 38.9609,34.45265 38.9609,29.96465 L38.9609,28.46665 C38.9609,27.91465 39.4089,27.46765 39.9599,27.46765 Z M30.5893,2.33435 C37.5513,5.27935 40.9593,11.45535 40.9593,18.72835 L40.9593,23.22335 C40.9593,23.77435 40.5113,24.22535 39.9603,24.22535 C39.4083,24.22535 38.9613,23.78235 38.9613,23.23035 L38.9613,23.22335 L38.9613,18.77735 C38.9573,18.70735 38.9563,18.62735 38.9563,18.52535 C38.9483,15.37035 38.0423,7.65535 29.8113,4.17335 C29.3033,3.95935 29.0653,3.37335 29.2803,2.86535 C29.4953,2.35735 30.0813,2.11935 30.5893,2.33435 Z M36.6997,15.36615 C36.8107,15.90715 36.4627,16.43415 35.9227,16.54515 C35.8547,16.55915 35.7867,16.56615 35.7207,16.56615 C35.2557,16.56615 34.8407,16.24115 34.7427,15.76815 C34.4537,14.35915 33.8967,13.03815 33.0877,11.84215 C32.7797,11.38515 32.8997,10.76315 33.3567,10.45515 C33.8137,10.14615 34.4337,10.26615 34.7427,10.72315 C35.6997,12.13715 36.3577,13.69915 36.6997,15.36615 Z M31.2358,7.21575 C31.6928,7.52475 31.8128,8.14575 31.5038,8.60275 C31.1948,9.05975 30.5738,9.17975 30.1168,8.87075 C25.7758,5.93575 19.9288,6.50075 16.2148,10.21475 C12.8868,13.54275 13.0728,16.43375 12.9928,19.49075 L12.9928,21.97475 C12.9928,22.52575 12.5458,22.97275 11.9938,22.97275 C11.4428,22.97275 10.9958,22.52575 10.9958,21.97475 C11.0098,17.83775 10.9778,20.57275 11.0098,18.76575 C11.0608,15.96575 11.1238,12.47975 14.8028,8.80175 C19.1918,4.41275 26.1028,3.74575 31.2358,7.21575 Z M31.5039,39.34125 C31.8129,39.79825 31.6929,40.41925 31.2359,40.72825 C29.1069,42.16825 26.6179,42.94925 24.0479,42.94925 C17.2009,42.94925 10.9959,37.54225 10.9959,29.96525 C10.9959,29.41325 11.4429,28.96625 11.9939,28.96625 C12.5459,28.96625 12.9929,29.41325 12.9929,29.96525 C12.9929,36.51525 18.4249,40.98725 24.0799,40.96325 C26.1869,40.95425 28.2719,40.32025 30.1169,39.07325 C30.5739,38.76425 31.1949,38.88425 31.5039,39.34125 Z M35.9648,18.47845 C36.5168,18.47845 36.9638,18.92545 36.9638,19.47745 L36.9638,29.96445 C36.9638,32.56145 36.1958,35.07045 34.7428,37.22045 C34.4328,37.67945 33.8118,37.79645 33.3568,37.48845 C32.8998,37.18045 32.7788,36.55945 33.0878,36.10245 C34.3168,34.28445 34.9658,32.16145 34.9658,29.96445 L34.9658,19.47745 C34.9658,18.92545 35.4138,18.47845 35.9648,18.47845 Z M23.9794,36.95595 C24.5314,36.95595 24.9784,37.40295 24.9784,37.95495 C24.9784,38.50595 24.5314,38.95395 23.9794,38.95395 C19.0164,38.95395 14.9904,34.92295 14.9904,29.96495 L14.9904,17.97895 C14.9904,16.76695 15.2294,15.58995 15.6994,14.48195 C15.9144,13.97495 16.5004,13.73695 17.0084,13.95295 C17.5164,14.16795 17.7534,14.75395 17.5384,15.26195 C17.1734,16.12295 16.9884,17.03695 16.9884,17.97895 L16.9884,29.96495 C16.9884,33.82395 20.1254,36.95595 23.9794,36.95595 Z M32.0078,30.59415 C32.5488,30.70515 32.8968,31.23315 32.7858,31.77315 C32.4328,33.49515 31.5838,35.06715 30.3328,36.31815 C29.9428,36.70815 29.3108,36.70815 28.9208,36.31815 C28.5308,35.92715 28.5308,35.29515 28.9208,34.90515 C29.8948,33.93115 30.5538,32.71015 30.8288,31.37215 C30.9398,30.83115 31.4688,30.48315 32.0078,30.59415 Z M23.9794,8.99015 C28.9364,8.99015 32.9684,13.02315 32.9684,17.97915 L32.9684,26.96815 L32.9684,26.97815 C32.9684,27.53015 32.5214,27.97715 31.9694,27.97715 C31.4184,27.97715 30.9714,27.53015 30.9714,26.97815 L30.9714,26.96815 L30.9714,17.97915 C30.9714,14.12415 27.8344,10.98815 23.9794,10.98815 C23.0384,10.98815 22.1234,11.17315 21.2614,11.53815 C20.7534,11.75315 20.1674,11.51515 19.9524,11.00815 C19.7374,10.50015 19.9754,9.91315 20.4824,9.69815 C21.5924,9.22815 22.7694,8.99015 23.9794,8.99015 Z M23.9794,12.98525 C26.7334,12.98525 28.9734,15.22525 28.9734,17.97925 C28.9734,18.53025 28.5264,18.97825 27.9744,18.97825 C27.4234,18.97825 26.9764,18.53025 26.9764,17.97925 C26.9764,16.32725 25.6314,14.98325 23.9794,14.98325 C22.3274,14.98325 20.9834,16.32725 20.9834,17.97925 L20.9834,26.96825 C20.9834,27.52025 20.5364,27.96725 19.9844,27.96725 C19.4334,27.96725 18.9854,27.52025 18.9854,26.96825 L18.9854,17.97925 C18.9854,15.22525 21.2264,12.98525 23.9794,12.98525 Z M28.9707,28.95155 C28.9917,30.12855 29.0047,30.90655 28.5797,31.90855 C27.7957,33.76155 25.9897,34.95855 23.9797,34.95855 C21.9707,34.95855 20.1647,33.76155 19.3797,31.90855 C19.1647,31.40055 19.4017,30.81455 19.9097,30.59855 C20.4177,30.38355 21.0037,30.62055 21.2187,31.12955 C21.6907,32.24255 22.7747,32.96055 23.9797,32.96055 C25.1857,32.96055 26.2697,32.24255 26.7407,31.12955 C26.9997,30.51755 27.0027,30.06855 26.9837,28.98555 C26.9687,28.09655 26.9727,28.96355 26.9857,23.97255 C26.9857,23.42055 27.4237,22.97255 27.9747,22.97255 C28.5267,22.97255 28.9737,23.42055 28.9737,23.97255 C28.9607,29.15555 28.9637,28.52155 28.9707,28.95155 Z M23.9794,16.98035 C24.5314,16.98035 24.9784,17.42735 24.9784,17.97935 L24.9784,29.96435 C24.9784,30.51635 24.5314,30.96335 23.9794,30.96335 C23.4284,30.96335 22.9804,30.51635 22.9804,29.96435 L22.9804,17.97935 C22.9804,17.42735 23.4284,16.98035 23.9794,16.98035 Z" id="path-1"></path>
    </defs>
    <g id="Desktop" stroke="none" stroke-width="1" fill="none" fill-rule="evenodd">
        <g id="3.-First-Login" transform="translate(-751.000000, -371.000000)">
            <g id="UI/Icons/48-fingerprint" transform="translate(744.000000, 370.000000)">
                <mask id="mask-2" fill="white">
                    <use xlink:href="#path-1"></use>
                </mask>
                <use id="Mask" fill="#000000" xlink:href="#path-1"></use>
                <rect id="Rectangle" fill="#4C6180" mask="url(#mask-2)" x="0" y="0" width="48" height="48"></rect>
            </g>
        </g>
    </g>
</svg>