<?xml version="1.0" encoding="UTF-8"?>
<svg width="36px" height="48px" viewBox="0 0 36 48" version="1.1" xmlns="http://www.w3.org/2000/svg" xmlns:xlink="http://www.w3.org/1999/xlink">
    <!-- Generator: sketchtool 54.1 (76490) - https://sketchapp.com -->
    <title>407F23AB-F93B-4F7D-8491-EF7B5040AA77</title>
    <desc>Created with sketchtool.</desc>
    <defs>
        <path d="M19.2029888,38 C19.6430054,38 20,38.4482085 20,39.0006515 C20,39.5530945 19.6430054,40 19.2029888,40 L15.7970112,40 C15.3569946,40 15,39.5530945 15,39.0006515 C15,38.4482085 15.3569946,38 15.7970112,38 L19.2029888,38 Z M23.9950611,32.5574786 L23.3598517,33.1959189 L23.3233567,34.1892685 L24.6746562,34.1892685 L24.6312568,33.1959189 L23.9950611,32.5574786 Z M30.4260631,26.8253955 L25.4607772,31.1874096 L27.3545692,33.0819117 C27.4729312,33.2008757 27.6208837,33.2633318 27.7816587,33.2633318 C28.0430415,33.2444958 28.2008575,33.1493246 28.309356,32.9897146 L31.6086967,28.0061134 L30.4260631,26.8253955 Z M19.3394891,24.3400388 L19.3394891,25.7001941 L23.9950611,29.7955306 L28.6604966,25.7001941 L28.6604966,24.3390475 C27.2490297,25.1876575 25.6452246,25.6337726 23.9950611,25.6337726 C22.3429248,25.6337726 20.7430651,25.1876575 19.3394891,24.3400388 Z M15.0981841,14.2479243 C15.0567574,14.2479243 15.0153307,14.2518898 14.973904,14.2588294 C14.6947669,14.3083977 14.4777699,14.6097732 14.4777699,14.946838 L14.4777699,15.5713991 C14.4777699,15.9183775 14.6908215,16.2276839 14.973904,16.2911314 C15.0005354,16.2931141 15.0439348,16.3000537 15.0883206,16.3000537 C15.1810375,16.2931141 15.2244369,16.2911314 15.2668499,16.2911314 C16.1131382,16.2911314 16.8736141,16.9335371 17.0373482,17.7851212 C17.6469125,21.1686563 20.5734129,23.6212979 23.9950611,23.6212979 C27.4137502,23.6212979 30.344196,21.1676649 30.9626375,17.787104 C31.1155217,16.9345285 31.8759976,16.2911314 32.7311631,16.2911314 C32.7311631,16.2911314 32.8889791,16.2970796 32.9008153,16.2970796 C32.9382966,16.2970796 32.9698598,16.2931141 33.0103001,16.2822091 C33.3022597,16.2237185 33.5133386,15.9193688 33.5133386,15.5713991 L33.5133386,14.9379157 C33.5133386,14.6127473 33.2933826,14.3153373 33.0112865,14.2588294 C32.9866277,14.2548639 32.9353375,14.2518898 32.8751702,14.2518898 C32.7883714,14.2518898 32.6147738,14.2588294 32.42934,14.3054236 C32.3070326,14.3341732 32.1857115,14.3480524 32.0643904,14.3480524 C31.429181,14.3480524 30.8630161,13.9663761 30.6223467,13.3755215 L30.0404002,11.9687719 C29.2069345,12.1313561 27.7293822,12.3623446 26.0387783,12.3623446 C23.3904285,12.3623446 19.7665786,11.7804122 17.5502502,9.00557644 C17.3766526,8.78648437 17.2987309,8.51683258 17.3302941,8.24618943 C17.360871,7.98248585 17.4910692,7.74852328 17.6972163,7.58494775 C17.873773,7.44020819 18.0996471,7.35990747 18.3314394,7.35990747 C18.6381942,7.35990747 18.9212767,7.4967161 19.1096695,7.73464414 C20.8219731,9.88194473 23.8165317,10.3330166 26.0269421,10.3330166 C28.4060183,10.3330166 30.3550459,9.82841092 30.3728002,9.82345409 C30.4674898,9.79966128 30.5483705,9.78974761 30.6292512,9.78974761 C31.0385864,9.78974761 31.4133994,10.0405634 31.5623383,10.4143087 L32.333664,12.2711388 C32.5121934,12.2463547 32.6926954,12.2334669 32.8653067,12.2334669 L32.8712248,12.2334669 C33.3920176,8.88066422 32.8801019,6.19009459 31.3838089,4.44231484 C30.0177142,2.86009335 27.7856041,2.0243711 24.9281482,2.0243711 C24.6411203,2.0243711 24.347188,2.03230204 24.048324,2.04915527 C20.4363103,2.24148044 18.3777978,4.19050766 18.3570845,4.210335 C18.1479783,4.3927465 17.9013908,4.48890908 17.6528306,4.48890908 C17.4101885,4.48890908 15.2855906,4.57416663 15.2855906,7.55124127 C15.2855906,9.65591309 15.644622,11.4205461 15.8833187,12.3583791 C16.1792237,12.452559 16.453429,12.5963072 16.7010028,12.7866496 C16.9919761,12.5169978 17.2484271,12.2057086 17.4634514,11.8617043 C17.6508579,11.5672684 17.9704353,11.3917964 18.3186168,11.3917964 C18.507996,11.3917964 18.6904708,11.4453302 18.8492731,11.5444669 C19.0830381,11.6951547 19.2418404,11.9251518 19.2980624,12.1948036 C19.3542843,12.4565244 19.3049668,12.7222107 19.1619461,12.9413028 C18.7062524,13.6739229 18.1223332,14.2955099 17.4299155,14.7832624 C17.206014,14.9438639 16.9347678,15.0291214 16.6477399,15.0291214 C16.5195144,15.0291214 16.3912889,15.0122682 16.2670088,14.9785617 C15.999708,14.8933041 15.7669294,14.7277459 15.585441,14.495766 C15.4660926,14.3341732 15.2944677,14.2479243 15.0981841,14.2479243 Z M22.529345,31.1874096 L17.5640591,26.8253955 L16.3824118,28.0061134 L19.6935887,32.9907059 C19.790251,33.1463505 19.9559578,33.2444958 20.1374462,33.2593664 L20.162105,33.2593664 C20.3840337,33.2593664 20.5280408,33.1959189 20.6306212,33.0878599 L22.529345,31.1874096 Z M38.2478186,28.9320501 C40.5825091,29.8421248 42.0886655,32.14507 41.9959486,34.6641332 L41.7690881,39.6536825 C41.7700745,40.3188897 41.2482953,40.6718163 40.7334206,40.6718163 C40.2185459,40.6718163 39.6977531,40.3188897 39.6977531,39.6427775 L39.984781,34.5818497 C39.9966172,34.274526 39.9709721,33.9622454 39.9108047,33.6519476 L37.4547932,36.109546 C36.732785,36.8451402 36.3342996,37.8186625 36.3342996,38.8486926 L36.3342996,43.9998348 C36.3342996,44.6769383 35.8283021,45.0308563 35.3282226,45.0308563 C34.8281432,45.0308563 34.3221456,44.6769383 34.3221456,43.9998348 L34.3221456,38.8486926 C34.3221456,37.2704366 34.9336826,35.7923086 36.0433264,34.6869346 L38.9343182,31.7713247 C38.5368192,31.3499938 38.0613985,31.0307737 37.518906,30.8225866 L33.2539286,29.1689867 L29.9713557,34.1089677 C29.53243,34.7702094 28.8331078,35.1935231 28.052905,35.268867 C27.9710379,35.279772 27.8822664,35.2807634 27.7934949,35.2807634 C27.4167092,35.2807634 27.0517597,35.2034367 26.7173871,35.0557231 L27.2401526,46.9402288 C27.2628386,47.467636 26.8771758,47.9226734 26.3623011,47.9742245 L26.2439391,47.981164 C25.7063783,47.981164 25.2674526,47.5628072 25.2447665,47.0294519 L24.7654004,36.2126482 L23.2345852,36.2126482 L22.7562055,47.043331 C22.7335194,47.5796605 22.2906483,48 21.7511148,48 L21.6475481,47.9940518 C21.1159054,47.940518 20.7272835,47.4844892 20.7509559,46.9531166 L21.2727351,35.0557231 C20.9403351,35.2034367 20.579331,35.2807634 20.2074771,35.2807634 C20.1177192,35.2807634 20.0289477,35.279772 19.9401762,35.2678756 C19.1609597,35.1925317 18.4576922,34.7692181 18.0197528,34.1089677 L14.7361936,29.1689867 L10.4722026,30.8225866 C9.93464183,31.031765 9.44935763,31.3579247 9.05580398,31.7713247 L11.9497549,34.679995 C13.0584123,35.7942914 13.6679766,37.2744021 13.6679766,38.8486926 L13.6679766,44.0523772 C13.6679766,44.7205585 13.1659244,45.0695196 12.6717631,45.0695196 C12.1716836,45.0695196 11.6656861,44.7156016 11.6656861,44.0375067 L11.6656861,38.8546408 C11.6656861,37.8176711 11.2642416,36.8431575 10.535329,36.109546 L8.08424922,33.6469908 C8.02013647,33.9553059 7.99350502,34.2695692 8.00632757,34.5858152 L8.29236907,39.6546739 C8.29236907,40.3446652 7.77453532,40.6975918 7.26163332,40.6975918 C6.75070402,40.6975918 6.23089757,40.3446652 6.23089757,39.668553 L6.00502342,34.6661159 C5.90145667,32.1460614 7.40761312,29.8421248 9.75315343,28.9320501 L14.4284524,27.1168574 L16.8183785,24.7246892 C16.9564675,24.5849064 17.1330241,24.4927093 17.3273351,24.454046 L17.3273351,22.708249 C16.1920462,21.4819282 15.4236796,19.968111 15.0942387,18.3155025 L15.0883206,18.3155025 C14.9186684,18.3155025 14.7440844,18.2956752 14.5704868,18.2649428 C13.3543173,18.0111529 12.4744931,16.8790119 12.4744931,15.5713991 L12.4744931,14.946838 C12.4744931,13.9247387 13.0130402,13.0027676 13.8642602,12.5427733 C13.6275362,11.5593374 13.2842864,9.75306704 13.2842864,7.55124127 C13.2842864,3.42616382 16.2226231,2.65091495 17.2444817,2.50716676 C17.8678549,1.99264736 19.4667282,0.850592755 21.9296442,0.300384155 C22.6013485,0.156635962 23.2769983,0.0654302119 23.9417982,0.0277582717 C24.2741981,0.00892230162 24.60068,0 24.9212437,0 C26.813063,0 28.5036669,0.322194225 29.9457106,0.958651741 L30.0492774,1.00524598 L30.1498851,1.04985749 C31.2358564,1.56635962 32.1600664,2.26428188 32.9008153,3.12677104 C34.8794334,5.41682845 35.5235199,8.84299228 34.7660031,13.0394481 C35.250301,13.5450452 35.5254926,14.2290884 35.5254926,14.9379157 L35.5254926,15.5713991 C35.5254926,16.8800033 34.6427094,18.0121442 33.4255535,18.2639514 C33.2549149,18.2956752 33.0823037,18.3155025 32.9087061,18.3155025 L32.9008153,18.3155025 C32.5555928,19.9958693 31.7852534,21.4958073 30.6627871,22.708249 L30.6627871,24.4570201 C30.8748523,24.4966748 31.0464772,24.5888719 31.1825935,24.7256805 L33.5616698,27.1168574 L38.2478186,28.9320501 Z" id="path-1"></path>
    </defs>
    <g id="Desktop" stroke="none" stroke-width="1" fill="none" fill-rule="evenodd">
        <g id="3.-First-Login" transform="translate(-582.000000, -370.000000)">
            <g id="UI/Icons/48-man" transform="translate(576.000068, 369.999803)">
                <mask id="mask-2" fill="white">
                    <use xlink:href="#path-1"></use>
                </mask>
                <use id="Mask" fill="#000000" xlink:href="#path-1"></use>
                <rect id="Rectangle" fill="#4C6180" mask="url(#mask-2)" x="0" y="0" width="48" height="48"></rect>
            </g>
        </g>
    </g>
</svg>