<?xml version="1.0" encoding="UTF-8"?>
<svg width="24px" height="42px" viewBox="0 0 24 42" version="1.1" xmlns="http://www.w3.org/2000/svg" xmlns:xlink="http://www.w3.org/1999/xlink">
    <!-- Generator: sketchtool 54.1 (76490) - https://sketchapp.com -->
    <title>7B46C039-6A5F-4BF5-BE0C-9AA9CC4B95B8</title>
    <desc>Created with sketchtool.</desc>
    <defs>
        <path d="M28,7.0001 C28.552,7.0001 29,7.4481 29,8.0001 C29,8.5521 28.552,9.0001 28,9.0001 L20,9.0001 C19.448,9.0001 19,8.5521 19,8.0001 C19,7.4481 19.448,7.0001 20,7.0001 L28,7.0001 Z M24,41.8951 C22.896,41.8951 22,40.9991 22,39.8951 C22,38.7911 22.896,37.8951 24,37.8951 C25.104,37.8951 26,38.7911 26,39.8951 C26,40.9991 25.104,41.8951 24,41.8951 Z M32.0352,7.0001 C32.5682,7.0001 33.0002,7.4321 33.0002,7.9651 L33.0002,8.0351 C33.0002,8.5681 32.5682,9.0001 32.0352,9.0001 L31.1722,9.0001 C30.6392,9.0001 30.2072,8.5681 30.2072,8.0351 L30.2072,7.9651 C30.2072,7.4321 30.6392,7.0001 31.1722,7.0001 L32.0352,7.0001 Z M34,41.0035 L34,36.8955 L14,36.8955 L14,41.0035 C14,42.1045 14.896,43.0005 15.997,43.0005 L32.003,43.0005 C33.104,43.0005 34,42.1045 34,41.0035 Z M14,6.9965 L14,11.0005 L34,11.0005 L34,6.9965 C34,5.8955 33.104,5.0005 32.003,5.0005 L15.997,5.0005 C14.896,5.0005 14,5.8955 14,6.9965 Z M14,34.8955 L34,34.8955 L34,13.0005 L14,13.0005 L14,34.8955 Z M32.003,3.0005 C34.21,3.0005 36,4.7895 36,6.9965 L36,41.0035 C36,43.2105 34.21,45.0005 32.003,45.0005 L15.997,45.0005 C13.79,45.0005 12,43.2105 12,41.0035 L12,6.9965 C12,4.7895 13.79,3.0005 15.997,3.0005 L32.003,3.0005 Z" id="path-1"></path>
    </defs>
    <g id="Desktop" stroke="none" stroke-width="1" fill="none" fill-rule="evenodd">
        <g id="3.-First-Login" transform="translate(-412.000000, -373.000000)">
            <g id="UI/Icons/48-mobile" transform="translate(400.000000, 370.000400)">
                <mask id="mask-2" fill="white">
                    <use xlink:href="#path-1"></use>
                </mask>
                <use id="Mask" fill="#000000" xlink:href="#path-1"></use>
                <rect id="Rectangle" fill="#3878FF" mask="url(#mask-2)" x="0" y="0" width="48" height="48"></rect>
            </g>
        </g>
    </g>
</svg>