<?xml version="1.0" encoding="utf-8"?>
<!-- Generator: Adobe Illustrator 23.0.3, SVG Export Plug-In . SVG Version: 6.00 Build 0)  -->
<svg version="1.1" id="Layer_1" xmlns="http://www.w3.org/2000/svg" xmlns:xlink="http://www.w3.org/1999/xlink" x="0px" y="0px"
	 viewBox="0 0 128 128" style="enable-background:new 0 0 128 128;" xml:space="preserve">
<style type="text/css">
	.st0{fill-rule:evenodd;clip-rule:evenodd;fill:#CFD7E3;}
	.st1{fill-rule:evenodd;clip-rule:evenodd;fill:#BFC9D9;}
	.st2{fill-rule:evenodd;clip-rule:evenodd;fill:#4C6180;}
	.st3{enable-background:new    ;}
	.st4{fill:#4C6180;}
</style>
<g>
	<path class="st0" d="M64,0L64,0c35.3,0,64,28.7,64,64l0,0c0,35.3-28.7,64-64,64l0,0C28.7,128,0,99.3,0,64l0,0C0,28.7,28.7,0,64,0z"
		/>
	<path class="st1" d="M64,6L64,6c32,0,58,26,58,58l0,0c0,32-26,58-58,58l0,0C32,122,6,96,6,64l0,0C6,32,32,6,64,6z"/>
	<path class="st2" d="M65,58.6c2.4,0,4.3-1.9,4.3-4.3s-1.9-4.3-4.3-4.3s-4.3,1.9-4.3,4.3S62.6,58.6,65,58.6z M65,47.6
		c3.7,0,6.6,3,6.6,6.7s-3,6.7-6.6,6.7c-3.7,0-6.6-3-6.6-6.7S61.3,47.6,65,47.6z M76.7,61.7V48.1h-5.5l-2.5-3.7h-7.4l-2.5,3.7h-5.5
		v13.6H76.7z M76.7,45.7c1.3,0,2.3,1.1,2.3,2.3v13.6c0,1.3-1,2.3-2.3,2.3H53.3C52,64,51,63,51,61.7V48.1c0-1.3,1-2.3,2.3-2.3h1v-1.2
		h2.3v1.2h1l1.8-2.7c0.4-0.6,1.2-1,1.9-1h7.4c0.8,0,1.5,0.4,1.9,1l1.8,2.7H76.7z M74.3,51.6c-0.6,0-1.2-0.5-1.2-1.2
		c0-0.6,0.5-1.2,1.2-1.2s1.2,0.5,1.2,1.2C75.5,51,75,51.6,74.3,51.6z"/>
	<g class="st3">
		<path class="st4" d="M35,82.9c-0.1-0.1-0.1-0.2-0.1-0.3V76h-2.4c-0.1,0-0.2,0-0.3-0.1S32,75.8,32,75.6c0-0.1,0-0.2,0.1-0.3
			c0.1-0.1,0.2-0.1,0.3-0.1h5.6c0.1,0,0.2,0,0.3,0.1c0.1,0.1,0.1,0.2,0.1,0.3c0,0.1,0,0.2-0.1,0.3S38.2,76,38.1,76h-2.4v6.6
			c0,0.1,0,0.3-0.1,0.3c-0.1,0.1-0.2,0.1-0.3,0.1C35.1,83.1,35,83,35,82.9z"/>
		<path class="st4" d="M42.8,79.6v3c0,0.1,0,0.2-0.1,0.3c-0.1,0.1-0.2,0.1-0.3,0.1c-0.1,0-0.2,0-0.3-0.1C42,82.9,42,82.7,42,82.6
			v-0.5c-0.1,0.3-0.4,0.6-0.6,0.7c-0.3,0.2-0.6,0.3-1,0.3c-0.3,0-0.7-0.1-1-0.2c-0.3-0.1-0.5-0.3-0.7-0.6c-0.2-0.2-0.3-0.5-0.3-0.8
			c0-0.4,0.1-0.7,0.3-0.9c0.2-0.2,0.5-0.4,1-0.5c0.5-0.1,1.1-0.1,2-0.1H42v-0.4c0-0.4-0.1-0.8-0.3-1c-0.2-0.2-0.5-0.3-0.9-0.3
			c-0.5,0-1,0.1-1.5,0.4c-0.2,0.1-0.3,0.2-0.4,0.2c-0.1,0-0.2,0-0.2-0.1c-0.1-0.1-0.1-0.2-0.1-0.3s0-0.2,0.1-0.3
			c0.1-0.1,0.2-0.2,0.3-0.2c0.3-0.1,0.5-0.3,0.9-0.3c0.3-0.1,0.7-0.1,1-0.1C42.2,77.5,42.8,78.2,42.8,79.6z M41.6,81.9
			c0.3-0.3,0.4-0.7,0.4-1.1v-0.3h-0.2c-0.6,0-1.1,0-1.5,0.1c-0.3,0.1-0.6,0.1-0.7,0.3c-0.1,0.1-0.2,0.3-0.2,0.6
			c0,0.3,0.1,0.5,0.3,0.7c0.2,0.2,0.5,0.3,0.8,0.3C40.9,82.4,41.3,82.2,41.6,81.9z"/>
		<path class="st4" d="M49,82.6c0,0.1,0,0.2-0.1,0.3c-0.1,0.1-0.2,0.1-0.3,0.1c-0.1,0-0.2,0-0.3-0.1l-2.9-2.5v2.2
			c0,0.1,0,0.2-0.1,0.3s-0.2,0.1-0.3,0.1c-0.1,0-0.2,0-0.3-0.1c-0.1-0.1-0.1-0.2-0.1-0.3v-7c0-0.1,0-0.2,0.1-0.3
			c0.1-0.1,0.2-0.1,0.3-0.1c0.1,0,0.2,0,0.3,0.1s0.1,0.2,0.1,0.3v4.5l2.6-2.4c0.1-0.1,0.2-0.1,0.3-0.1s0.2,0,0.3,0.1
			c0.1,0.1,0.1,0.2,0.1,0.3c0,0.1-0.1,0.2-0.2,0.3l-2.2,1.9l2.4,2.1C48.9,82.4,49,82.5,49,82.6z"/>
		<path class="st4" d="M54.4,81.9c0.1,0.1,0.1,0.2,0.1,0.3c0,0.2-0.1,0.4-0.4,0.5c-0.3,0.2-0.5,0.3-0.8,0.3
			c-0.3,0.1-0.6,0.1-0.9,0.1c-0.8,0-1.5-0.2-2-0.7s-0.7-1.2-0.7-2c0-0.5,0.1-1,0.3-1.5s0.5-0.8,0.9-1c0.4-0.2,0.8-0.4,1.3-0.4
			c0.7,0,1.2,0.2,1.7,0.7c0.4,0.5,0.6,1.1,0.6,1.8c0,0.1,0,0.3-0.1,0.3c-0.1,0.1-0.2,0.1-0.3,0.1h-3.5c0.1,1.3,0.7,1.9,1.8,1.9
			c0.3,0,0.5,0,0.7-0.1s0.4-0.2,0.7-0.3c0.2-0.1,0.3-0.2,0.4-0.2C54.3,81.8,54.3,81.8,54.4,81.9z M51.1,78.6
			c-0.3,0.3-0.4,0.7-0.5,1.2h3.1c0-0.5-0.2-1-0.4-1.2s-0.6-0.4-1.1-0.4C51.8,78.2,51.4,78.4,51.1,78.6z"/>
		<path class="st4" d="M63,79.6v3c0,0.1,0,0.2-0.1,0.3c-0.1,0.1-0.2,0.1-0.3,0.1c-0.1,0-0.2,0-0.3-0.1c-0.1-0.1-0.1-0.2-0.1-0.3
			v-0.5c-0.1,0.3-0.4,0.6-0.6,0.7c-0.3,0.2-0.6,0.3-1,0.3c-0.3,0-0.7-0.1-1-0.2c-0.3-0.1-0.5-0.3-0.7-0.6c-0.2-0.2-0.3-0.5-0.3-0.8
			c0-0.4,0.1-0.7,0.3-0.9c0.2-0.2,0.5-0.4,1-0.5c0.5-0.1,1.1-0.1,2-0.1h0.2v-0.4c0-0.4-0.1-0.8-0.3-1c-0.2-0.2-0.5-0.3-0.9-0.3
			c-0.5,0-1,0.1-1.5,0.4c-0.2,0.1-0.3,0.2-0.4,0.2c-0.1,0-0.2,0-0.2-0.1c-0.1-0.1-0.1-0.2-0.1-0.3s0-0.2,0.1-0.3s0.2-0.2,0.3-0.2
			c0.3-0.1,0.5-0.3,0.9-0.3c0.3-0.1,0.7-0.1,1-0.1C62.3,77.5,63,78.2,63,79.6z M61.7,81.9c0.3-0.3,0.4-0.7,0.4-1.1v-0.3H62
			c-0.6,0-1.1,0-1.5,0.1c-0.3,0.1-0.6,0.1-0.7,0.3c-0.1,0.1-0.2,0.3-0.2,0.6c0,0.3,0.1,0.5,0.3,0.7c0.2,0.2,0.5,0.3,0.8,0.3
			C61.1,82.4,61.4,82.2,61.7,81.9z"/>
		<path class="st4" d="M71.6,77.9c0.4,0.2,0.6,0.6,0.8,1c0.2,0.4,0.3,0.9,0.3,1.5c0,0.6-0.1,1-0.3,1.5c-0.2,0.4-0.5,0.7-0.8,1
			s-0.8,0.3-1.2,0.3c-0.4,0-0.8-0.1-1.1-0.3c-0.3-0.2-0.5-0.4-0.7-0.8v2.6c0,0.1,0,0.2-0.1,0.3C68.3,85,68.2,85,68.1,85
			c-0.1,0-0.2,0-0.3-0.1c-0.1-0.1-0.1-0.2-0.1-0.3V78c0-0.1,0-0.2,0.1-0.3c0.1-0.1,0.2-0.1,0.3-0.1c0.1,0,0.2,0,0.3,0.1
			c0.1,0.1,0.1,0.2,0.1,0.3v0.6c0.2-0.3,0.4-0.6,0.7-0.8c0.3-0.2,0.7-0.3,1.1-0.3C70.8,77.5,71.2,77.6,71.6,77.9z M71.4,81.8
			c0.3-0.4,0.4-0.9,0.4-1.5c0-0.6-0.1-1.2-0.4-1.5c-0.3-0.4-0.7-0.5-1.2-0.5s-0.9,0.2-1.2,0.5c-0.3,0.4-0.4,0.9-0.4,1.5
			c0,0.7,0.1,1.2,0.4,1.5s0.7,0.5,1.2,0.5S71.1,82.2,71.4,81.8z"/>
		<path class="st4" d="M78.3,78c0.3,0.4,0.5,0.9,0.5,1.6v3c0,0.1,0,0.2-0.1,0.3c-0.1,0.1-0.2,0.1-0.3,0.1c-0.1,0-0.2,0-0.3-0.1
			s-0.1-0.2-0.1-0.3v-3c0-0.5-0.1-0.8-0.3-1.1c-0.2-0.2-0.5-0.3-0.9-0.3c-0.5,0-0.9,0.2-1.2,0.5C75.2,79,75,79.4,75,79.9v2.7
			c0,0.1,0,0.2-0.1,0.3s-0.2,0.1-0.3,0.1c-0.1,0-0.2,0-0.3-0.1c-0.1-0.1-0.1-0.2-0.1-0.3v-7c0-0.1,0-0.2,0.1-0.3
			c0.1-0.1,0.2-0.1,0.3-0.1c0.1,0,0.2,0,0.3,0.1s0.1,0.2,0.1,0.3v2.9c0.2-0.3,0.4-0.6,0.7-0.7c0.3-0.2,0.7-0.3,1.1-0.3
			C77.5,77.5,77.9,77.7,78.3,78z"/>
		<path class="st4" d="M81.3,82.7c-0.4-0.2-0.7-0.6-0.9-1s-0.3-0.9-0.3-1.5s0.1-1,0.3-1.5c0.2-0.4,0.5-0.7,0.9-1
			c0.4-0.2,0.8-0.3,1.3-0.3s1,0.1,1.3,0.3c0.4,0.2,0.7,0.6,0.9,1c0.2,0.4,0.3,0.9,0.3,1.5s-0.1,1-0.3,1.5s-0.5,0.7-0.9,1
			s-0.8,0.3-1.3,0.3S81.7,83,81.3,82.7z M83.9,81.8c0.3-0.3,0.4-0.9,0.4-1.5c0-0.7-0.1-1.2-0.4-1.5c-0.3-0.4-0.7-0.5-1.2-0.5
			s-0.9,0.2-1.2,0.5c-0.3,0.4-0.4,0.9-0.4,1.5c0,0.7,0.1,1.2,0.4,1.5c0.3,0.4,0.7,0.5,1.2,0.5S83.6,82.2,83.9,81.8z"/>
		<path class="st4" d="M89.5,82.7c0,0.1,0,0.2-0.1,0.3c-0.1,0.1-0.2,0.1-0.4,0.1l-0.3,0c-0.6,0-1-0.2-1.3-0.5
			c-0.3-0.3-0.4-0.8-0.4-1.4v-2.8h-0.7c-0.1,0-0.2,0-0.3-0.1c-0.1-0.1-0.1-0.1-0.1-0.2c0-0.1,0-0.2,0.1-0.3c0.1-0.1,0.2-0.1,0.3-0.1
			h0.7v-1.2c0-0.1,0-0.2,0.1-0.3c0.1-0.1,0.2-0.1,0.3-0.1c0.1,0,0.2,0,0.3,0.1c0.1,0.1,0.1,0.2,0.1,0.3v1.2H89c0.1,0,0.2,0,0.3,0.1
			c0.1,0.1,0.1,0.2,0.1,0.3c0,0.1,0,0.2-0.1,0.2c-0.1,0.1-0.2,0.1-0.3,0.1h-1.2v2.8c0,0.4,0.1,0.7,0.2,0.9s0.4,0.3,0.7,0.3l0.3,0
			C89.3,82.4,89.5,82.5,89.5,82.7z"/>
		<path class="st4" d="M91.3,82.7c-0.4-0.2-0.7-0.6-0.9-1s-0.3-0.9-0.3-1.5s0.1-1,0.3-1.5c0.2-0.4,0.5-0.7,0.9-1
			c0.4-0.2,0.8-0.3,1.3-0.3s1,0.1,1.3,0.3c0.4,0.2,0.7,0.6,0.9,1c0.2,0.4,0.3,0.9,0.3,1.5s-0.1,1-0.3,1.5s-0.5,0.7-0.9,1
			s-0.8,0.3-1.3,0.3S91.7,83,91.3,82.7z M93.9,81.8c0.3-0.3,0.4-0.9,0.4-1.5c0-0.7-0.1-1.2-0.4-1.5c-0.3-0.4-0.7-0.5-1.2-0.5
			s-0.9,0.2-1.2,0.5c-0.3,0.4-0.4,0.9-0.4,1.5c0,0.7,0.1,1.2,0.4,1.5c0.3,0.4,0.7,0.5,1.2,0.5S93.6,82.2,93.9,81.8z"/>
	</g>
	<g>
		<path class="st4" d="M22.3,23.7c-0.5,0.5-0.9,1-1.4,1.5l0.7,0.7c0.4-0.5,0.9-1,1.3-1.4L22.3,23.7z"/>
		<path class="st4" d="M18.4,98.2c-0.4-0.5-0.8-1.1-1.2-1.6l-0.8,0.6c0.4,0.5,0.8,1.1,1.2,1.6L18.4,98.2z"/>
		<path class="st4" d="M14.1,91.7c-0.3-0.6-0.6-1.1-0.9-1.7l-0.9,0.4c0.3,0.6,0.6,1.2,0.9,1.8L14.1,91.7z"/>
		<path class="st4" d="M20.9,101.3c-0.4-0.5-0.8-1-1.3-1.5l-0.8,0.6c0.4,0.5,0.8,1,1.3,1.5L20.9,101.3z"/>
		<path class="st4" d="M23.6,104.2c-0.5-0.5-0.9-0.9-1.4-1.4l-0.7,0.7c0.5,0.5,0.9,1,1.4,1.4L23.6,104.2z"/>
		<path class="st4" d="M16.2,95c-0.4-0.5-0.7-1.1-1-1.7l-0.9,0.5c0.3,0.6,0.7,1.1,1.1,1.7L16.2,95z"/>
		<path class="st4" d="M8.5,77.1c-0.1-0.6-0.3-1.3-0.4-1.9l-1,0.2c0.1,0.7,0.3,1.3,0.4,2L8.5,77.1z"/>
		<path class="st4" d="M9.5,80.9C9.3,80.2,9.2,79.6,9,79l-1,0.3c0.2,0.6,0.3,1.3,0.5,1.9L9.5,80.9z"/>
		<path class="st4" d="M12.4,88.2c-0.3-0.6-0.5-1.2-0.8-1.8l-0.9,0.4c0.3,0.6,0.5,1.2,0.8,1.8L12.4,88.2z"/>
		<path class="st4" d="M10.8,84.6c-0.2-0.6-0.5-1.2-0.7-1.8L9.2,83c0.2,0.6,0.4,1.3,0.7,1.9L10.8,84.6z"/>
		<path class="st4" d="M7.7,73.2c-0.1-0.6-0.2-1.3-0.3-1.9l-1,0.1c0.1,0.7,0.2,1.3,0.3,2L7.7,73.2z"/>
		<path class="st4" d="M50.6,119.4c-0.6-0.2-1.3-0.3-1.9-0.5l-0.3,0.9c0.6,0.2,1.3,0.3,1.9,0.5L50.6,119.4z"/>
		<path class="st4" d="M54.5,120.2c-0.6-0.1-1.3-0.2-1.9-0.4l-0.2,1c0.7,0.1,1.3,0.2,2,0.4L54.5,120.2z"/>
		<path class="st4" d="M46.9,118.4c-0.6-0.2-1.3-0.4-1.9-0.6l-0.3,0.9c0.6,0.2,1.3,0.4,1.9,0.6L46.9,118.4z"/>
		<path class="st4" d="M58.4,120.7c-0.7-0.1-1.3-0.1-2-0.2l-0.1,1c0.7,0.1,1.3,0.2,2,0.2L58.4,120.7z"/>
		<path class="st4" d="M62.3,121c-0.7,0-1.3,0-2-0.1l-0.1,1c0.7,0,1.3,0.1,2,0.1L62.3,121z"/>
		<path class="st4" d="M26.4,106.9c-0.5-0.4-1-0.9-1.5-1.3l-0.7,0.7c0.5,0.5,1,0.9,1.5,1.3L26.4,106.9z"/>
		<path class="st4" d="M29.5,109.4c-0.5-0.4-1-0.8-1.5-1.2l-0.6,0.8c0.5,0.4,1,0.8,1.6,1.2L29.5,109.4z"/>
		<path class="st4" d="M32.7,111.6c-0.5-0.4-1.1-0.7-1.6-1.1l-0.6,0.8c0.5,0.4,1.1,0.8,1.6,1.1L32.7,111.6z"/>
		<path class="st4" d="M43.1,117.1c-0.6-0.2-1.2-0.5-1.8-0.8l-0.4,0.9c0.6,0.3,1.2,0.5,1.9,0.8L43.1,117.1z"/>
		<path class="st4" d="M36,113.7c-0.6-0.3-1.1-0.7-1.7-1l-0.5,0.9c0.6,0.3,1.2,0.7,1.7,1L36,113.7z"/>
		<path class="st4" d="M39.5,115.5c-0.6-0.3-1.2-0.6-1.8-0.9l-0.5,0.9c0.6,0.3,1.2,0.6,1.8,0.9L39.5,115.5z"/>
		<path class="st4" d="M16.8,32c0.4-0.5,0.7-1.1,1.1-1.6l-0.8-0.6c-0.4,0.5-0.8,1.1-1.2,1.6L16.8,32z"/>
		<path class="st4" d="M27.4,20.3c0.5-0.4,1-0.8,1.5-1.2l-0.6-0.8c-0.5,0.4-1,0.8-1.6,1.3L27.4,20.3z"/>
		<path class="st4" d="M7.2,69.3c-0.1-0.7-0.1-1.3-0.1-2l-1,0.1c0,0.7,0.1,1.3,0.2,2L7.2,69.3z"/>
		<path class="st4" d="M30.4,17.9c0.5-0.4,1.1-0.8,1.6-1.1L31.5,16c-0.6,0.4-1.1,0.8-1.6,1.2L30.4,17.9z"/>
		<path class="st4" d="M44.2,10.5c0.6-0.2,1.2-0.4,1.9-0.6l-0.3-0.9c-0.6,0.2-1.3,0.4-1.9,0.6L44.2,10.5z"/>
		<path class="st4" d="M33.7,15.7c0.6-0.3,1.1-0.7,1.7-1l-0.5-0.9c-0.6,0.3-1.1,0.7-1.7,1L33.7,15.7z"/>
		<path class="st4" d="M40.6,12c0.6-0.3,1.2-0.5,1.8-0.8L42,10.3c-0.6,0.3-1.2,0.5-1.8,0.8L40.6,12z"/>
		<path class="st4" d="M59.5,7.2c0.7-0.1,1.3-0.1,2-0.1l0-1c-0.7,0-1.3,0.1-2,0.1L59.5,7.2z"/>
		<path class="st4" d="M7,64l0-0.6l-1,0c0,0.2,0,0.4,0,0.6c0,0.5,0,0.9,0,1.4l1,0C7,64.9,7,64.5,7,64z"/>
		<path class="st4" d="M51.8,8.3C52.4,8.2,53,8,53.7,7.9l-0.2-1c-0.7,0.1-1.3,0.2-2,0.4L51.8,8.3z"/>
		<path class="st4" d="M55.6,7.6c0.6-0.1,1.3-0.2,1.9-0.3l-0.1-1c-0.7,0.1-1.3,0.2-2,0.3L55.6,7.6z"/>
		<path class="st4" d="M48,9.3c0.6-0.2,1.3-0.4,1.9-0.5l-0.2-1C49,8,48.3,8.2,47.7,8.3L48,9.3z"/>
		<path class="st4" d="M37.1,13.7c0.6-0.3,1.2-0.6,1.7-0.9L38.4,12c-0.6,0.3-1.2,0.6-1.8,0.9L37.1,13.7z"/>
		<path class="st4" d="M9.9,46c0.2-0.6,0.4-1.2,0.7-1.9l-0.9-0.3c-0.2,0.6-0.4,1.3-0.7,1.9L9.9,46z"/>
		<path class="st4" d="M24.4,23c0.5-0.5,1-0.9,1.4-1.3l-0.7-0.7c-0.5,0.4-1,0.9-1.5,1.4L24.4,23z"/>
		<path class="st4" d="M7.9,53.7c0.1-0.6,0.2-1.3,0.4-1.9l-1-0.2c-0.1,0.6-0.3,1.3-0.4,2L7.9,53.7z"/>
		<path class="st4" d="M11.3,42.4c0.2-0.6,0.5-1.2,0.8-1.8l-0.9-0.4c-0.3,0.6-0.5,1.2-0.8,1.8L11.3,42.4z"/>
		<path class="st4" d="M7.4,57.5c0.1-0.7,0.2-1.3,0.3-1.9l-1-0.1c-0.1,0.7-0.2,1.3-0.3,2L7.4,57.5z"/>
		<path class="st4" d="M8.8,49.8c0.2-0.6,0.3-1.3,0.5-1.9l-0.9-0.3c-0.2,0.6-0.4,1.3-0.5,1.9L8.8,49.8z"/>
		<path class="st4" d="M19.2,28.8c0.4-0.5,0.8-1,1.2-1.5l-0.8-0.6c-0.4,0.5-0.8,1-1.3,1.6L19.2,28.8z"/>
		<path class="st4" d="M66,7l0-1C65.3,6,64.7,6,64,6c-0.2,0-0.4,0-0.6,0l0,1L64,7C64.7,7,65.3,7,66,7z"/>
		<path class="st4" d="M14.7,35.3c0.3-0.6,0.7-1.1,1-1.7l-0.8-0.5c-0.4,0.6-0.7,1.1-1,1.7L14.7,35.3z"/>
		<path class="st4" d="M12.9,38.8c0.3-0.6,0.6-1.2,0.9-1.7l-0.9-0.5c-0.3,0.6-0.6,1.2-0.9,1.8L12.9,38.8z"/>
		<path class="st4" d="M7.1,61.5c0-0.7,0.1-1.3,0.1-2l-1-0.1c-0.1,0.7-0.1,1.3-0.1,2L7.1,61.5z"/>
		<path class="st4" d="M92.4,113.4c-0.6,0.3-1.1,0.6-1.7,0.9l0.5,0.9c0.6-0.3,1.2-0.6,1.7-1L92.4,113.4z"/>
		<path class="st4" d="M95.7,111.4c-0.5,0.4-1.1,0.7-1.6,1.1l0.5,0.8c0.6-0.4,1.1-0.7,1.7-1.1L95.7,111.4z"/>
		<path class="st4" d="M107.4,100.9c-0.4,0.5-0.9,1-1.3,1.5l0.7,0.7c0.4-0.5,0.9-1,1.3-1.5L107.4,100.9z"/>
		<path class="st4" d="M105.5,104.5l-0.7-0.7c-0.5,0.5-0.9,0.9-1.4,1.4l0.7,0.7C104.5,105.5,105,105,105.5,104.5z"/>
		<path class="st4" d="M101.9,106.5c-0.5,0.4-1,0.9-1.5,1.3l0.6,0.8c0.5-0.4,1-0.9,1.5-1.3L101.9,106.5z"/>
		<path class="st4" d="M98.9,109.1c-0.5,0.4-1,0.8-1.6,1.2l0.6,0.8c0.5-0.4,1.1-0.8,1.6-1.2L98.9,109.1z"/>
		<path class="st4" d="M88.9,115.3c-0.6,0.3-1.2,0.6-1.8,0.8l0.4,0.9c0.6-0.3,1.2-0.5,1.8-0.8L88.9,115.3z"/>
		<path class="st4" d="M70.2,120.7c-0.6,0.1-1.3,0.1-2,0.2l0.1,1c0.7,0,1.3-0.1,2-0.2L70.2,120.7z"/>
		<path class="st4" d="M74,120.1c-0.6,0.1-1.3,0.2-1.9,0.3l0.1,1c0.7-0.1,1.3-0.2,2-0.3L74,120.1z"/>
		<path class="st4" d="M81.7,118.2c-0.6,0.2-1.2,0.4-1.9,0.6l0.3,0.9c0.6-0.2,1.3-0.4,1.9-0.6L81.7,118.2z"/>
		<path class="st4" d="M85.4,116.9c-0.6,0.2-1.2,0.5-1.8,0.7l0.3,0.9c0.6-0.2,1.2-0.5,1.9-0.7L85.4,116.9z"/>
		<path class="st4" d="M77.9,119.3c-0.6,0.2-1.3,0.3-1.9,0.4l0.2,1c0.7-0.1,1.3-0.3,1.9-0.4L77.9,119.3z"/>
		<path class="st4" d="M118.6,80.3c-0.2,0.6-0.4,1.3-0.6,1.9l0.9,0.3c0.2-0.6,0.4-1.3,0.6-1.9L118.6,80.3z"/>
		<path class="st4" d="M120.3,72.7c-0.1,0.6-0.2,1.3-0.3,1.9l1,0.2c0.1-0.7,0.3-1.3,0.4-2L120.3,72.7z"/>
		<path class="st4" d="M119.6,76.5c-0.1,0.6-0.3,1.3-0.5,1.9l1,0.3c0.2-0.6,0.3-1.3,0.5-1.9L119.6,76.5z"/>
		<path class="st4" d="M120.8,68.8c-0.1,0.7-0.1,1.3-0.2,2l1,0.1c0.1-0.7,0.1-1.3,0.2-2L120.8,68.8z"/>
		<path class="st4" d="M121,64.8c0,0.7,0,1.3-0.1,2l1,0c0-0.7,0-1.3,0.1-2L121,64.8z"/>
		<path class="st4" d="M117.4,84.1c-0.2,0.6-0.5,1.2-0.7,1.8l0.9,0.4c0.3-0.6,0.5-1.2,0.7-1.9L117.4,84.1z"/>
		<path class="st4" d="M114.1,91.2c-0.3,0.6-0.6,1.1-1,1.7l0.8,0.5c0.3-0.6,0.7-1.1,1-1.7L114.1,91.2z"/>
		<path class="st4" d="M109.9,97.9c-0.4,0.5-0.8,1-1.2,1.6l0.8,0.6c0.4-0.5,0.8-1,1.2-1.6L109.9,97.9z"/>
		<path class="st4" d="M112.1,94.6c-0.4,0.6-0.7,1.1-1.1,1.6l0.8,0.6c0.4-0.5,0.7-1.1,1.1-1.7L112.1,94.6z"/>
		<path class="st4" d="M115.9,87.7c-0.3,0.6-0.6,1.2-0.9,1.8l0.9,0.4c0.3-0.6,0.6-1.2,0.9-1.8L115.9,87.7z"/>
		<path class="st4" d="M116.5,41.9c0.3,0.6,0.5,1.2,0.7,1.8l0.9-0.4c-0.2-0.6-0.5-1.2-0.7-1.9L116.5,41.9z"/>
		<path class="st4" d="M112.8,32.7c-0.4-0.6-0.7-1.1-1.1-1.7l-0.8,0.6c0.4,0.5,0.7,1.1,1.1,1.6L112.8,32.7z"/>
		<path class="st4" d="M114.9,36.1c-0.3-0.6-0.7-1.2-1-1.7l-0.9,0.5c0.3,0.6,0.7,1.1,1,1.7L114.9,36.1z"/>
		<path class="st4" d="M110.5,29.4c-0.4-0.5-0.8-1.1-1.2-1.6l-0.8,0.6c0.4,0.5,0.8,1,1.2,1.6L110.5,29.4z"/>
		<path class="st4" d="M114.9,38.3c0.3,0.6,0.6,1.2,0.9,1.8l0.9-0.4c-0.3-0.6-0.6-1.2-0.9-1.8L114.9,38.3z"/>
		<path class="st4" d="M108,26.3c-0.4-0.5-0.9-1-1.3-1.5l-0.7,0.7c0.4,0.5,0.9,1,1.3,1.5L108,26.3z"/>
		<path class="st4" d="M119.1,49.3c0.2,0.6,0.3,1.3,0.5,1.9l1-0.2c-0.1-0.7-0.3-1.3-0.5-1.9L119.1,49.3z"/>
		<path class="st4" d="M120,53.1c0.1,0.6,0.2,1.3,0.3,1.9l1-0.2c-0.1-0.7-0.2-1.3-0.4-2L120,53.1z"/>
		<path class="st4" d="M120.6,57c0.1,0.6,0.1,1.3,0.2,2l1-0.1c-0.1-0.7-0.1-1.3-0.2-2L120.6,57z"/>
		<path class="st4" d="M122,62.9c0-0.7,0-1.3-0.1-2l-1,0.1c0,0.7,0.1,1.3,0.1,2L122,62.9z"/>
		<path class="st4" d="M105.3,23.3c-0.5-0.5-0.9-0.9-1.4-1.4l-0.7,0.7c0.5,0.5,0.9,0.9,1.4,1.4L105.3,23.3z"/>
		<path class="st4" d="M117.9,45.5c0.2,0.6,0.4,1.2,0.6,1.9l0.9-0.3c-0.2-0.6-0.4-1.3-0.6-1.9L117.9,45.5z"/>
		<path class="st4" d="M102.4,20.6c-0.5-0.4-1-0.9-1.5-1.3l-0.6,0.8c0.5,0.4,1,0.8,1.5,1.3L102.4,20.6z"/>
		<path class="st4" d="M77.9,7.7c-0.6-0.2-1.3-0.3-1.9-0.4l-0.2,1c0.6,0.1,1.3,0.3,1.9,0.4L77.9,7.7z"/>
		<path class="st4" d="M81.7,8.8c-0.6-0.2-1.3-0.4-1.9-0.6l-0.3,0.9c0.6,0.2,1.3,0.4,1.9,0.6L81.7,8.8z"/>
		<path class="st4" d="M85.5,10.1c-0.6-0.2-1.2-0.5-1.9-0.7l-0.3,0.9c0.6,0.2,1.2,0.5,1.8,0.7L85.5,10.1z"/>
		<path class="st4" d="M70,6.3c-0.7-0.1-1.3-0.1-2-0.2l-0.1,1c0.7,0,1.3,0.1,2,0.2L70,6.3z"/>
		<path class="st4" d="M66.2,121c-0.7,0-1.3,0-2,0l0,1c0.7,0,1.3,0,2-0.1L66.2,121z"/>
		<path class="st4" d="M73.9,6.9c-0.7-0.1-1.3-0.2-2-0.3l-0.1,1c0.7,0.1,1.3,0.2,1.9,0.3L73.9,6.9z"/>
		<path class="st4" d="M99.3,18c-0.5-0.4-1.1-0.8-1.6-1.2l-0.6,0.8c0.5,0.4,1.1,0.8,1.6,1.2L99.3,18z"/>
		<path class="st4" d="M89.2,11.7c-0.6-0.3-1.2-0.6-1.8-0.8l-0.4,0.9c0.6,0.3,1.2,0.5,1.8,0.8L89.2,11.7z"/>
		<path class="st4" d="M96.1,15.7c-0.6-0.4-1.1-0.7-1.7-1.1l-0.5,0.8c0.6,0.3,1.1,0.7,1.7,1.1L96.1,15.7z"/>
		<path class="st4" d="M92.7,13.6c-0.6-0.3-1.2-0.7-1.8-1l-0.5,0.9c0.6,0.3,1.2,0.6,1.7,0.9L92.7,13.6z"/>
	</g>
</g>
</svg>
