<?xml version="1.0" encoding="UTF-8"?>
<svg width="74px" height="69px" viewBox="0 0 74 69" version="1.1" xmlns="http://www.w3.org/2000/svg" xmlns:xlink="http://www.w3.org/1999/xlink">
    <!-- Generator: sketchtool 55 (78076) - https://sketchapp.com -->
    <title>BCC28FD2-7427-4B3D-929F-A1BFB5826F8D</title>
    <desc>Created with sketchtool.</desc>
    <g id="Desktop" stroke="none" stroke-width="1" fill="none" fill-rule="evenodd">
        <g id="6.1.-Redeem-/-Error-modal" transform="translate(-645.000000, -363.000000)" fill="#FF5783">
            <g id="Modal-window-02-Copy" transform="translate(510.000000, 286.701395)">
                <g id="UI-/-Icons-/-Modal-/-Atention" transform="translate(135.000000, 77.000000)">
                    <path d="M37.3144585,47.5085 C38.9772596,47.5085 40.3494991,48.8644759 40.2766444,50.5798672 C40.3494991,52.1404862 38.9044049,53.5085 37.3144585,53.5085 C35.6627999,53.5085 34.2794179,52.1404862 34.2794179,50.5076402 C34.2794179,48.8765138 35.6627999,47.5085 37.3144585,47.5085 Z M37.0144906,0 C41.7909611,0 46.0506266,2.47663263 48.4080523,6.65164181 L72.2297794,48.122001 C74.6021129,52.2500551 74.588199,57.1893337 72.1989699,61.3333725 C69.7958268,65.5073826 65.5212535,68 60.7606847,68 L13.1778556,68 C8.43120084,68 4.18743703,65.538353 1.81410963,61.4402703 C-0.589033439,57.2962315 -0.60493513,52.3269816 1.76839227,48.1519724 L25.6209289,6.63665614 C27.9783546,2.49261735 32.2380201,0 37.0144906,0 Z M37.0153449,4 C33.6908101,4 30.7238589,5.72812786 29.0769874,8.62399068 L5.23012968,50.1480063 C3.57829177,53.0548572 3.58921794,56.5290935 5.26787462,59.4239574 C6.92666554,62.2908516 9.887657,64 13.1923261,64 L60.7479745,64 C64.0685362,64 67.0573398,62.2528927 68.7409629,59.3280613 C70.4096867,56.4321985 70.4196196,52.9899276 68.7707615,50.1190377 L44.9616487,8.65295929 C43.3117974,5.7301257 40.3468328,4 37.0153449,4 Z M37.3085,20.0195 C39.7675,20.0385 40.7825,21.4085 40.7795,23.9995 C40.7825,25.4085 39.8625,40.5405 39.7745,41.9995 C39.6865,43.4595 38.2455,43.9995 37.3085,43.9995 C36.3715,43.9995 34.9305,43.4595 34.8425,41.9995 C34.7535,40.5405 33.8335,25.4085 33.8375,23.9995 C33.8335,21.4085 34.8495,20.0385 37.3085,20.0195 Z" id="Combined-Shape"></path>
                </g>
            </g>
        </g>
    </g>
</svg>