<?xml version="1.0" encoding="UTF-8"?>
<svg width="16px" height="16px" viewBox="0 0 16 16" version="1.1" xmlns="http://www.w3.org/2000/svg" xmlns:xlink="http://www.w3.org/1999/xlink">
    <!-- Generator: sketchtool 54.1 (76490) - https://sketchapp.com -->
    <title>50DD04B1-891F-40B2-A36F-224D9961073F</title>
    <desc>Created with sketchtool.</desc>
    <defs>
        <path d="M123.999813,130 C128.446639,130 131.371524,134.427 131.690512,134.932 C132.102496,135.583 132.103495,136.414 131.691512,137.066 C131.373524,137.571 128.455638,142 123.993813,142 C119.551987,141.986 116.629101,137.573 116.311114,137.07 C115.89713,136.417 115.89613,135.585 116.309114,134.932 C116.628101,134.427 119.552987,130 123.999813,130 Z M123.999813,132 C120.525949,132 118.000048,136 118.000048,136 C118.000048,136 120.525949,139.989 123.999813,140 L124.014812,140 C127.479677,140 129.999578,136 129.999578,136 C129.999578,136 127.473677,132 123.999813,132 Z M123.999813,133 C125.653748,133 126.999695,134.346 126.999695,136 C126.999695,137.654 125.653748,139 123.999813,139 C122.345878,139 120.99993,137.654 120.99993,136 C120.99993,134.346 122.345878,133 123.999813,133 Z M123.999813,135 C123.446834,135 122.999852,135.448 122.999852,136 C122.999852,136.552 123.446834,137 123.999813,137 C124.552791,137 124.999774,136.552 124.999774,136 C124.999774,135.448 124.552791,135 123.999813,135 Z" id="path-1"></path>
    </defs>
    <g id="ExportIcons" stroke="none" stroke-width="1" fill="none" fill-rule="evenodd">
        <g id="Icons" transform="translate(-116.000000, -128.000000)">
            <mask id="mask-2" fill="white">
                <use xlink:href="#path-1"></use>
            </mask>
            <use id="Mask" fill="#000000" xlink:href="#path-1"></use>
            <rect id="Rectangle" fill="#3878FF" mask="url(#mask-2)" x="116" y="128" width="16" height="16"></rect>
        </g>
    </g>
</svg>