<?xml version="1.0" encoding="UTF-8"?>
<svg width="12px" height="12px" viewBox="0 0 12 12" version="1.1" xmlns="http://www.w3.org/2000/svg" xmlns:xlink="http://www.w3.org/1999/xlink">
    <!-- Generator: sketchtool 55.2 (78181) - https://sketchapp.com -->
    <title>F6A2CCF0-9AC6-423F-8C70-1E84301405E5</title>
    <desc>Created with sketchtool.</desc>
    <defs>
        <path d="M13,11 L19,11 C19.5522847,11 20,11.4477153 20,12 C20,12.5522847 19.5522847,13 19,13 L13,13 L13,19 C13,19.5522847 12.5522847,20 12,20 C11.4477153,20 11,19.5522847 11,19 L11,13 L5,13 C4.44771525,13 4,12.5522847 4,12 C4,11.4477153 4.44771525,11 5,11 L11,11 L11,5 C11,4.44771525 11.4477153,4 12,4 C12.5522847,4 13,4.44771525 13,5 L13,11 Z" id="path-1"></path>
    </defs>
    <g id="Client" stroke="none" stroke-width="1" fill="none" fill-rule="evenodd">
        <g id="1.1.-Send-succes" transform="translate(-816.000000, -313.000000)">
            <g id="Modal-window-02" transform="translate(510.000000, 291.000000)">
                <g id="UI/Icons/24-close" transform="translate(300.000000, 16.000000)">
                    <mask id="mask-2" fill="white">
                        <use xlink:href="#path-1"></use>
                    </mask>
                    <path stroke="#979797" d="M19,11.5 L12.5,11.5 L12.5,5 C12.5,4.72385763 12.2761424,4.5 12,4.5 C11.7238576,4.5 11.5,4.72385763 11.5,5 L11.5,11.5 L5,11.5 C4.72385763,11.5 4.5,11.7238576 4.5,12 C4.5,12.2761424 4.72385763,12.5 5,12.5 L11.5,12.5 L11.5,19 C11.5,19.2761424 11.7238576,19.5 12,19.5 C12.2761424,19.5 12.5,19.2761424 12.5,19 L12.5,12.5 L19,12.5 C19.2761424,12.5 19.5,12.2761424 19.5,12 C19.5,11.7238576 19.2761424,11.5 19,11.5 Z"></path>
                    <rect id="Rectangle" fill="#4C6180" mask="url(#mask-2)" x="0" y="0" width="24" height="24"></rect>
                </g>
            </g>
        </g>
    </g>
</svg>