<?xml version="1.0" encoding="UTF-8"?>
<svg width="16px" height="20px" viewBox="0 0 16 20" version="1.1" xmlns="http://www.w3.org/2000/svg" xmlns:xlink="http://www.w3.org/1999/xlink">
    <!-- Generator: sketchtool 55.2 (78181) - https://sketchapp.com -->
    <title>AD2CDE4E-63BA-48C3-BC21-C79B023C7A6A</title>
    <desc>Created with sketchtool.</desc>
    <defs>
        <path d="M5.0002,7.9994 C4.4472,7.9994 4.0002,7.5514 4.0002,6.9994 C4.0002,6.4474 4.4472,5.9994 5.0002,5.9994 L16.5902,5.9994 L14.3052,3.7064 C13.9152,3.3154 13.9162,2.6824 14.3072,2.2924 C14.6982,1.9004 15.3312,1.9034 15.7212,2.2944 L19.7082,6.2944 C20.0982,6.6844 20.0982,7.3164 19.7082,7.7064 L15.7212,11.7064 C15.5252,11.9024 15.2702,12.0004 15.0132,12.0004 C14.7572,12.0004 14.5022,11.9034 14.3072,11.7084 C13.9162,11.3184 13.9152,10.6854 14.3052,10.2944 L16.5922,7.9994 L5.0002,7.9994 Z M19.0002,15.9994 C19.5532,15.9994 20.0002,16.4474 20.0002,16.9994 C20.0002,17.5514 19.5532,17.9994 19.0002,17.9994 L7.4082,17.9994 L9.6952,20.2944 C10.0852,20.6854 10.0842,21.3184 9.6932,21.7084 C9.4982,21.9034 9.2422,22.0004 8.9872,22.0004 C8.7302,22.0004 8.4752,21.9024 8.2792,21.7064 L4.2922,17.7064 C3.9022,17.3164 3.9022,16.6844 4.2922,16.2944 L8.2792,12.2944 C8.6702,11.9034 9.3032,11.9024 9.6932,12.2924 C10.0842,12.6824 10.0852,13.3154 9.6952,13.7064 L7.4102,15.9994 L19.0002,15.9994 Z" id="path-1"></path>
    </defs>
    <g id="Client" stroke="none" stroke-width="1" fill="none" fill-rule="evenodd">
        <g id="3.2.-Redeem" transform="translate(-672.000000, -243.000000)">
            <g id="UI/Icons/24-arrow-reddem" transform="translate(668.000000, 241.000000)">
                <mask id="mask-2" fill="white">
                    <use xlink:href="#path-1"></use>
                </mask>
                <use id="Combined-Shape" fill="#000000" xlink:href="#path-1"></use>
                <rect id="Rectangle" fill="#FFFFFF" mask="url(#mask-2)" x="0" y="0" width="24" height="24"></rect>
            </g>
        </g>
    </g>
</svg>