<svg xmlns="http://www.w3.org/2000/svg" xmlns:xlink="http://www.w3.org/1999/xlink" width="20" height="20" viewBox="0 0 20 20">
  <defs>
    <path id="32_topup-copy-2-a" d="M4.0001,15 L20,15 L20.0001,11 C20.0001,10.449 19.5521,10 19.0001,10 L17.0001,10 C16.4471,10 16.0001,9.552 16.0001,9 C16.0001,8.448 16.4471,8 17.0001,8 L19.0001,8 C20.6541,8 22.0001,9.346 22.0001,11 L22.0001,17.996 C22.0001,19.652 20.6521,21 18.9961,21 L5.0001,21 C3.3461,21 2.0001,19.654 2.0001,18 L2.0001,11 C2.0001,9.346 3.3461,8 5.0001,8 L7.0001,8 C7.5531,8 8.0001,8.448 8.0001,9 C8.0001,9.552 7.5531,10 7.0001,10 L5.0001,10 C4.4481,10 4.0001,10.449 4.0001,11 L4.0001,15 Z M4.0001,17 L4.0001,18 C4.0001,18.551 4.4481,19 5.0001,19 L18.9961,19 C19.5501,19 20.0001,18.55 20.0001,17.996 L20.0001,17 L4.0001,17 Z M9.707,5.707 C9.316,6.098 8.684,6.098 8.293,5.707 C7.902,5.316 7.902,4.684 8.293,4.293 L11.293,1.293 C11.684,0.902 12.316,0.902 12.707,1.293 L15.707,4.293 C16.098,4.684 16.098,5.316 15.707,5.707 C15.512,5.902 15.256,6 15,6 C14.744,6 14.488,5.902 14.293,5.707 L13,4.414 L13,12 C13,12.552 12.553,13 12,13 C11.447,13 11,12.552 11,12 L11,4.414 L9.707,5.707 Z"/>
  </defs>
  <g fill="none" fill-rule="evenodd" transform="translate(-2 -1)">
    <mask id="32_topup-copy-2-b" fill="#fff">
      <use xlink:href="#32_topup-copy-2-a"/>
    </mask>
    <use fill="#000" xlink:href="#32_topup-copy-2-a"/>
    <rect width="24" height="24" fill="#FFF" mask="url(#32_topup-copy-2-b)"/>
  </g>
</svg>
