<svg xmlns="http://www.w3.org/2000/svg" xmlns:xlink="http://www.w3.org/1999/xlink" width="16" height="20" viewBox="0 0 16 20">
  <defs>
    <path id="32_topup-copy-a" d="M9.70675022,6.70730698 C9.31575593,7.09831171 8.68376515,7.09831171 8.29277086,6.70730698 C7.90177656,6.31630225 7.90177656,5.6842946 8.29277086,5.29328986 L11.2927271,2.29325355 C11.6837214,1.90224882 12.3157121,1.90224882 12.7067064,2.29325355 L15.7066627,5.29328986 C16.097657,5.6842946 16.097657,6.31630225 15.7066627,6.70730698 C15.5116655,6.90230934 15.2556692,7.00031053 14.999673,7.00031053 C14.7436767,7.00031053 14.4876804,6.90230934 14.2926833,6.70730698 L12.9997022,5.41429133 L12.9997022,15.0004074 C12.9997022,15.552414 12.5527087,16.0004195 11.9997168,16.0004195 C11.4467248,16.0004195 10.9997314,15.552414 10.9997314,15.0004074 L10.9997314,5.41429133 L9.70675022,6.70730698 Z M18.4010233,9.19904925 C19.4020087,10.5370654 20,12.1990856 20,14.0001074 C20,18.9331671 15.5410651,22.8192141 10.4321396,21.8512024 C7.29718539,21.2581952 4.76922228,18.7381647 4.15723121,15.6071268 C3.6852381,13.1920976 4.30722902,10.9210701 5.60321011,9.19204916 C5.96420484,8.71104334 6.67919441,8.68004297 7.1041882,9.10504811 C7.45818304,9.45805238 7.49118256,10.0130591 7.19118693,10.4120639 C6.44119788,11.409076 6.00020432,12.652091 6.00020432,14.0001074 C6.00020432,17.7541528 9.45915384,20.7101886 13.3580969,19.8501782 C15.613064,19.3541722 17.4220376,17.5131499 17.875031,15.2491225 C18.2400257,13.4241004 17.7830324,11.7060796 16.8030467,10.4060639 C16.505051,10.0100591 16.5430505,9.45705237 16.8940453,9.10604812 C17.3220391,8.67804294 18.0390286,8.71504339 18.4010233,9.19904925 Z"/>
  </defs>
  <g fill="none" fill-rule="evenodd" transform="translate(-4 -2)">
    <mask id="32_topup-copy-b" fill="#fff">
      <use xlink:href="#32_topup-copy-a"/>
    </mask>
    <use fill="#000" xlink:href="#32_topup-copy-a"/>
    <rect width="24" height="24" fill="#FFF" mask="url(#32_topup-copy-b)"/>
  </g>
</svg>
