<svg xmlns="http://www.w3.org/2000/svg" width="20" height="10" viewBox="0 0 20 10">
  <path fill="#FFF" fill-rule="evenodd" d="M646.70701,527.706971 L642.707189,531.706762 C642.316203,532.097746 641.684226,532.097746 641.29324,531.706762 C640.902253,531.315779 640.902253,530.683805 641.29324,530.292821 L644.586086,527 L641.29324,523.707179 C640.902253,523.316195 640.902253,522.684221 641.29324,522.293238 C641.684226,521.902254 642.316203,521.902254 642.707189,522.293238 L646.70701,526.293029 C646.902003,526.488021 647,526.744011 647,527 C647,527.255989 646.902003,527.511979 646.70701,527.706971 Z M653.70701,527.706971 L649.707189,531.706762 C649.316203,532.097746 648.684226,532.097746 648.29324,531.706762 C647.902253,531.315779 647.902253,530.683805 648.29324,530.292821 L651.586086,527 L648.29324,523.707179 C647.902253,523.316195 647.902253,522.684221 648.29324,522.293238 C648.684226,521.902254 649.316203,521.902254 649.707189,522.293238 L653.70701,526.293029 C653.902003,526.488021 654,526.744011 654,527 C654,527.255989 653.902003,527.511979 653.70701,527.706971 Z M660.70701,527.706971 L656.707189,531.706762 C656.316203,532.097746 655.684226,532.097746 655.29324,531.706762 C654.902253,531.315779 654.902253,530.683805 655.29324,530.292821 L658.586086,527 L655.29324,523.707179 C654.902253,523.316195 654.902253,522.684221 655.29324,522.293238 C655.684226,521.902254 656.316203,521.902254 656.707189,522.293238 L660.70701,526.293029 C660.902003,526.488021 661,526.744011 661,527 C661,527.255989 660.902003,527.511979 660.70701,527.706971 Z" transform="translate(-641 -522)"/>
</svg>
