<svg xmlns="http://www.w3.org/2000/svg" width="93" height="48" viewBox="0 0 93 48">
  <path fill="#3878FF" fill-rule="evenodd" d="M135.586223,106.627987 L135.586223,102.84135 L126.006054,102.84135 C124.88398,102.84135 123.974996,101.83865 123.974996,100.600888 C123.974996,99.3637989 124.88398,98.3604265 126.006054,98.3604265 L135.586223,98.3604265 L135.586223,96.969017 C135.586223,96.8585795 135.5899,96.7450397 135.596642,96.6339818 C135.773761,91.8361533 139.665481,88.0037226 144.445862,88 L200.004304,88 C204.972223,88 209,92.0744006 209,97.1036515 L209,126.893867 C209,131.922497 204.972223,136 200.004304,136 L144.445862,136 C144.336771,136 144.22768,135.996898 144.11859,135.990073 C139.487749,135.817592 135.767019,132.050307 135.596642,127.362916 C135.590049,127.254917 135.586387,127.146918 135.586228,127.038339 L127.868109,127.038339 C126.696652,127.038339 125.747149,126.034966 125.747149,124.797877 C125.747149,123.560116 126.696652,122.557415 127.868109,122.557415 L135.586223,122.557415 L135.586223,118.972676 L128.731344,118.972676 C127.572221,118.972676 126.633225,117.969975 126.633225,116.732214 C126.633225,115.494453 127.572221,114.491752 128.731344,114.491752 L135.586223,114.491752 L135.586223,110.898947 L118.077154,110.898947 C116.930236,110.898947 116,109.94323 116,108.763467 C116,107.584344 116.930236,106.627987 118.077154,106.627987 L135.586223,106.627987 Z M204.910936,105.403219 L204.910936,96.969017 C204.907872,94.3023848 202.774473,92.1432689 200.140361,92.1395463 L191.809628,92.1395463 C192.739351,99.0387902 198.099506,104.460777 204.910936,105.403219 Z M204.910936,127.030983 L204.910936,118.597402 C198.099506,119.539223 192.739351,124.964932 191.809628,131.861074 L200.140361,131.861074 C202.774473,131.857352 204.907872,129.697615 204.910936,127.030983 Z M156.899979,131.864176 L187.686244,131.864176 C188.664383,122.674905 195.833116,115.417049 204.907872,114.430556 L204.907872,109.576889 C195.833116,108.587294 188.664383,101.329438 187.686244,92.1395463 L156.899979,92.1395463 C155.92184,101.329438 148.753107,108.587294 139.675287,109.576889 L139.675287,114.430556 C148.753107,115.417049 155.92184,122.674905 156.899979,131.864176 Z M144.445862,131.864176 L152.777207,131.864176 C151.846872,124.964932 146.490394,119.542325 139.675287,118.600504 L139.675287,127.034706 C139.678351,129.701338 141.811749,131.861074 144.445862,131.864176 Z M152.777207,92.1395463 L144.445862,92.1395463 C141.811749,92.1432689 139.678351,94.305487 139.675287,96.969017 L139.675287,105.403219 C146.490394,104.460777 151.846872,99.0387902 152.777207,92.1395463 Z M173.316026,123.69309 C178.745158,122.930216 182.7854,118.239997 182.792151,112.700624 C182.7854,107.16187 178.741476,102.474756 173.316026,101.712502 C173.67445,102.095491 173.872074,102.602626 173.872074,103.12714 L173.872074,103.489645 C176.083374,104.349353 177.54714,106.499554 177.550823,108.894321 C177.550823,110.040185 176.636352,110.965069 175.503391,110.965069 C174.374112,110.965069 173.455959,110.040185 173.455959,108.894321 C173.455959,107.983093 172.72561,107.244427 171.824641,107.244427 C170.924287,107.244427 170.190255,107.983093 170.190255,108.894321 C170.190255,109.809274 170.924287,110.547319 171.824641,110.547319 C174.585238,110.543595 176.953655,112.538614 177.45508,115.28223 C177.960187,118.029571 176.451617,120.745254 173.872074,121.742764 L173.872074,122.274727 C173.872074,122.802346 173.67445,123.310101 173.316026,123.69309 Z M171.841826,117.988603 C172.732361,117.970602 173.445525,117.232556 173.442457,116.328156 C173.438774,115.42748 172.715176,114.695642 171.824641,114.688814 C169.060976,114.688814 166.692559,112.69752 166.191135,109.950179 C165.68971,107.203459 167.197666,104.487155 169.777209,103.489645 L169.777209,103.12714 C169.777209,102.599522 169.975447,102.095491 170.330188,101.712502 C164.90167,102.468548 160.854677,107.158146 160.854677,112.704348 C160.854677,118.243722 164.90167,122.937044 170.330188,123.69309 C169.975447,123.310101 169.777209,122.802346 169.777209,122.274727 L169.777209,121.742764 C167.56284,120.883677 166.099074,118.7372 166.095391,116.338088 C166.095391,115.19657 167.013544,114.26734 168.142823,114.26734 C169.272716,114.26734 170.190255,115.19657 170.190255,116.338088 C170.190255,117.242488 170.910785,117.97743 171.807457,117.988603 L171.841826,117.988603 Z M171.824641,97.4642418 C180.143869,97.4642418 186.886401,104.28666 186.886401,112.700624 C186.886401,121.115208 180.1408,127.937626 171.824641,127.934522 C163.509097,127.927074 156.770247,121.111484 156.759813,112.700624 C156.759813,104.28666 163.506028,97.4642418 171.824641,97.4642418 Z M123.531958,118.972676 C122.308823,118.972676 121.316768,117.969975 121.316768,116.732214 C121.316768,115.494453 122.308823,114.491752 123.531958,114.491752 C124.755758,114.491752 125.747149,115.494453 125.747149,116.732214 C125.747149,117.969975 124.755758,118.972676 123.531958,118.972676 Z" transform="translate(-116 -88)"/>
</svg>
