<svg xmlns="http://www.w3.org/2000/svg" width="92" height="48" viewBox="0 0 92 48">
  <path fill="#3878FF" fill-rule="evenodd" d="M339.033477,361.95 C339.095805,361.42 339.050296,360.9 338.917725,360.429 C338.903874,360.38 338.890023,360.33 338.856386,360.28 L318.513663,376 L335.03755,394.831 L335.03755,394.83 C335.116696,394.58 335.179025,394.309 335.209694,394.05 L339.033477,361.95 Z M331.742072,397.91 C331.872664,397.881 331.993363,397.85 332.116041,397.802 L331.725253,397.349 L315.625791,378.738 L315.187515,379 L312.284804,381.44 C310.008342,383.28 307.295583,384.21 304.671865,384.23 C302.052104,384.21 299.560956,383.28 297.721781,381.44 L295.400799,379 L295.02584,378.738 L274.492175,397.349 L273.99355,397.802 C274.104356,397.85 274.21714,397.881 274.340807,397.91 C274.629693,397.98 274.921547,398.019 275.238134,398.019 L303.028578,398.019 L330.819022,398.019 C331.135609,398.019 331.437357,397.98 331.742072,397.91 Z M271.779416,394.83 L271.779416,394.831 L292.790931,376 L276.191854,360.28 C276.147334,360.33 276.120622,360.38 276.094899,360.429 C275.851523,360.9 275.680367,361.42 275.61705,361.95 L271.793267,394.05 C271.762598,394.309 271.75963,394.58 271.779416,394.83 Z M307.798166,357.98 L280.304523,357.98 L300.668023,378.47 C301.853247,379.65 303.453992,380.25 305.142789,380.269 C306.837521,380.25 308.580731,379.65 310.046926,378.47 L335.291809,357.98 L307.798166,357.98 Z M342.247829,357.72 C342.864185,358.94 343.127349,360.389 342.941354,361.95 L339.117571,394.05 C338.937511,395.559 338.353803,396.98 337.497039,398.179 C336.659071,399.33 335.585642,400.28 334.367769,400.95 C333.141982,401.61 331.769773,402 330.34513,402 L302.554686,402 L274.764243,402 C273.339599,402 272.060388,401.61 270.991905,400.95 C269.933316,400.28 269.086444,399.33 268.521533,398.179 C267.951676,396.98 267.705331,395.559 267.88539,394.05 L271.709173,361.95 C271.895169,360.389 272.50361,358.94 273.410831,357.72 C274.257703,356.58 275.360812,355.63 276.596492,354.98 C277.787653,354.36 279.107427,354 280.481614,354 L308.272058,354 L336.062502,354 C337.438668,354 338.67138,354.36 339.715129,354.98 C340.795484,355.63 341.672036,356.58 342.247829,357.72 Z M265.840038,363.9998 C266.932264,363.9998 267.818709,364.8958 267.818709,365.9998 C267.818709,367.1038 266.932264,367.9998 265.840038,367.9998 L259.904023,367.9998 C258.811796,367.9998 257.925351,367.1038 257.925351,365.9998 C257.925351,364.8958 258.811796,363.9998 259.904023,363.9998 L265.840038,363.9998 Z M262.87203,379.9998 C263.964257,379.9998 264.850702,380.8958 264.850702,381.9998 C264.850702,383.1038 263.964257,383.9998 262.87203,383.9998 L260.893358,383.9998 C259.801132,383.9998 258.914687,383.1038 258.914687,381.9998 C258.914687,380.8958 259.801132,379.9998 260.893358,379.9998 L262.87203,379.9998 Z M264.850702,371.9998 C265.942928,371.9998 266.829373,372.8958 266.829373,373.9998 C266.829373,375.1038 265.942928,375.9998 264.850702,375.9998 L252.978672,375.9998 C251.886445,375.9998 251,375.1038 251,373.9998 C251,372.8958 251.886445,371.9998 252.978672,371.9998 L264.850702,371.9998 Z M262.87203,387.9998 C263.964257,387.9998 264.850702,388.8958 264.850702,389.9998 C264.850702,391.1038 263.964257,391.9998 262.87203,391.9998 L259.904023,391.9998 C258.811796,391.9998 257.925351,391.1038 257.925351,389.9998 C257.925351,388.8958 258.811796,387.9998 259.904023,387.9998 L262.87203,387.9998 Z M254.957343,379.9998 C256.04957,379.9998 256.936015,380.8958 256.936015,381.9998 C256.936015,383.1038 256.04957,383.9998 254.957343,383.9998 C253.865117,383.9998 252.978672,383.1038 252.978672,381.9998 C252.978672,380.8958 253.865117,379.9998 254.957343,379.9998 Z" transform="translate(-251 -354)"/>
</svg>
